<?xml version="1.0" encoding="utf-8"?>
<!-- Generator: Adobe Illustrator 22.0.1, SVG Export Plug-In . SVG Version: 6.00 Build 0)  -->
<svg version="1.1" id="layer_1" xmlns="http://www.w3.org/2000/svg" xmlns:xlink="http://www.w3.org/1999/xlink" x="0px" y="0px"
	 width="3000px" height="2000px" viewBox="0 0 3000 2000" style="enable-background:new 0 0 3000 2000;" xml:space="preserve">
<style type="text/css">
	.st0{clip-path:url(#SVGID_2_);}
	.st1{fill:#1C121E;}
	.st2{fill:#201623;}
	.st3{fill:#2A1C2D;}
	.st4{fill:#3E2B42;}
	.st5{fill:#4C3951;}
	.st6{fill:#5D4963;}
	.st7{fill:#533A54;}
	.st8{fill:#DFC3E2;}
	.st9{fill:#402E42;}
	.st10{fill:#725E50;}
	.st11{fill:#2D222D;}
	.st12{fill:#B493B5;}
	.st13{fill:#3D2D3D;}
	.st14{fill:#6A516B;}
	.st15{fill:#725072;}
	.st16{fill:#AA8363;}
	.st17{fill:#BF9775;}
	.st18{fill:#E2B68D;}
	.st19{fill:#E0C3E2;}
	.st20{fill:#662727;}
	.st21{fill:#7C3131;}
	.st22{fill:#471F1F;}
	.st23{fill:#9B5A5A;}
	.st24{fill:#333333;}
	.st25{fill:#562E25;}
	.st26{fill:#6D3B33;}
	.st27{fill:#7A433D;}
	.st28{fill:#895646;}
	.st29{fill:#A56858;}
	.st30{fill:none;stroke:#533A54;stroke-miterlimit:10;}
</style>
<g>
	<defs>
		<rect id="SVGID_1_" width="3000" height="2000"/>
	</defs>
	<clipPath id="SVGID_2_">
		<use xlink:href="#SVGID_1_"  style="overflow:visible;"/>
	</clipPath>
	<g class="st0">
		<g>
			<g>
				<rect class="st1" width="3000" height="2000"/>
				<g>
					<path class="st2" d="M2164.9,2156.8c0.1,0,0.1-0.1,0.2-0.1c0.6-0.3,1.2-0.7,1.8-1c0.5-0.3,0.9-0.5,1.3-0.7c0,0,0,0,0-0.1
						C2167.1,2155.6,2166,2156.2,2164.9,2156.8z"/>
					<path class="st2" d="M2804.2,1831.2c6-14.2,11.6-28.6,16.9-43c12.7-34.8,25.8-71.5,33.4-107.9c2.8-10.9,4.8-21.8,4.9-33.6
						c0.1-10.9,0.1-21.7-0.2-32.6c-0.3-13.8-0.8-27.5-1.6-41.3c-1.4-25.8-1.7-53.4-7.4-79c2.4-19.7,2.4-40.1,3.2-59.7
						c1-23.3,1.7-46.6,2.1-69.8c0.3-16.1-0.5-22.2,1.2-34.8c1.6-12.2,3.1-24.5,4.5-36.8c2.5-21.2,4.9-42.4,7.2-63.7
						c9.3-86.7,15.5-173.6,14.9-260.8c-0.3-41.5-2.1-83.1-6.8-124.3c-4.6-41-5.6-82-12.4-122.9c-14.2-84.6-41.1-167-79.3-243.7
						c-43.8-88.1-98.4-169.9-159.1-247.1c-17.8-26.3-44.2-49.2-65.2-70.9c-17.7-18.3-35.6-36.3-53.6-54.2
						c-38.7-38.3-78-76.2-118.4-112.8c-91.2-82.7-190.6-155.6-302.5-208c-34.8-16.3-73.1-25.7-110.3-34.8
						c-35-8.6-69.3-14.7-105.2-15.4c6.5,0,13,0.1,19.5,0.1c-36.8-6.5-76.8-0.5-113.7,4.7c-14.3,2-28.5,4.3-42.7,6.9
						c-7.5,1.4-15.1,2.8-22.5,4.4c-6,1.3-11.7,2.9-17,4.7c-45.6,0.6-91.1,3.7-136.4,8.7c-5.8,0.1-11.7,0.2-17.5,0.3
						c-86.9,1.8-173.6,10.8-259,27c-46.9,8.9-93.4,20.1-139.4,32.8c-17.6,1.3-36.5,10.4-53.2,16c-12.9,4.3-25.7,8.8-38.5,13.5
						c-26.1,9.5-52,19.8-77.6,30.7c-51.8,22.2-101.8,47.8-151.1,75c2.3-1.3,4.7-2.6,7-3.9c-25.9,8.7-51.7,30.1-74.2,45.9
						c-16.8,11.8-33.4,23.9-49.7,36.4c-34.4,26.3-67.6,54.1-99.6,83.2c-21.1,19.2-41.7,39-62.1,59c-7.2,7.1-15.3,14-21.8,21.8
						c-6.9,8.4-12.3,18.5-18.2,27.6c-10.5,16.5-20.7,33.1-30.7,49.9C397.5,358.8,332.6,447,277.5,541.6
						c-89,143.3-153,299-183.8,465.4c-6.6,29.3-7.9,60.4-9.5,90c-2.1,37.8-2.5,75.8-1.6,113.7c1.3,60.7,7.4,121.2,18.3,180.9
						c24.3,133.4,69.8,259.5,136.1,377.6c136.6,243.4,369.2,417.4,624.2,522.4c257.7,106.1,541.2,153.6,819.1,154.5
						c258.4,0.8,527.4-55.1,736-215.6c22.8-17.5,44.6-36.1,65.4-55.5c2.9-1.8,5.8-3.5,8.7-5.3c12.8-7.9,25.3-16.3,37.7-24.9
						c11.8-7,22.3-16,33.4-24.3c10-7.5,19.7-15.2,29.3-23.2c24.9-20.7,48.4-43.1,71.1-66.1c42.1-42.6,78.5-90.3,109.7-141.4
						c-3.6,3.5-7.2,6.9-10.7,10.4c8.4-8.2,15.8-16.4,22.2-27.1c4.6-7.6,8.5-14.3,12.3-22.1C2798.5,1844.6,2801.4,1838,2804.2,1831.2
						z"/>
				</g>
				<g>
					<path class="st3" d="M2407.1,1733.9c0-0.1,0.1-0.1,0.1-0.1c0.4-0.5,0.7-1,1.1-1.4c0.3-0.4,0.5-0.7,0.8-1c0,0,0,0,0-0.1
						C2408.4,1732.2,2407.8,1733.1,2407.1,1733.9z"/>
					<path class="st3" d="M2803.2,1259.2c-0.1-13.3-0.5-26.6-1.2-39.8c-1.7-31.9-3.8-65.4-10.1-96.8c-1.5-9.6-3.6-18.9-7.5-28.3
						c-3.6-8.6-7.3-17.2-11.2-25.7c-4.9-10.8-10-21.5-15.2-32.2c-9.9-20-19.5-41.7-32.7-60.1c-4.7-16.4-11.7-32.6-17.7-48.4
						c-7.1-18.8-14.5-37.4-22-56c-5.2-12.8-7.9-17.4-10.9-28c-2.9-10.2-5.9-20.5-8.9-30.7c-5.2-17.7-10.5-35.3-15.9-52.9
						c-22-71.8-46.6-142.8-76.6-211.7c-14.3-32.8-29.9-65.1-47.5-96.2c-17.6-30.9-32.2-63.1-51.5-93.1
						c-39.9-62.2-89.2-118.3-145.5-166.2c-64.6-54.9-135.6-101.2-209.9-141.8c-23-14.8-51.7-23.9-75.7-34
						c-20.2-8.5-40.5-16.7-60.9-24.7c-43.7-17.2-87.6-33.9-132-49.2c-100.3-34.5-203.7-58.7-310.2-62.2c-33.1-1.1-66.7,4.5-99.2,9.8
						c-30.6,5.1-59.9,11.8-88.5,23.5c5.2-2.2,10.3-4.4,15.5-6.5c-31.4,7.4-61,25.6-88.5,42.3c-10.6,6.4-21.1,13.1-31.5,20
						c-5.5,3.6-11,7.3-16.4,11.1c-4.3,3.1-8.3,6.2-11.9,9.5c-35.9,16-70.9,33.8-105.1,53.2c-4.6,2-9.2,4.1-13.8,6.2
						c-68.2,30.9-133.9,67.4-196,109.2c-34.1,23-67.1,47.6-99.3,73.3c-13.5,7-25.4,20.6-36.7,30.7c-8.8,7.8-17.4,15.7-26,23.7
						c-17.5,16.4-34.5,33.3-51.1,50.7c-33.5,35.2-64.5,72.4-94.2,110.7c1.4-1.8,2.8-3.6,4.2-5.5c-17.6,15.6-30.7,41.4-43.2,61.5
						c-9.3,15-18.3,30.3-27,45.7c-18.3,32.5-35.2,65.8-50.7,99.7c-10.2,22.4-19.8,45.1-29.1,67.8c-3.3,8-7.4,16.3-9.8,24.7
						c-2.6,9-3.5,18.8-5,28c-2.7,16.6-5.2,33.3-7.4,50c-32.3,88.5-53.8,180.4-65.3,274c-21.9,143.7-19.8,288.8,12.2,431
						c4.7,25.5,14.3,50.5,23,74.5c11.2,30.7,23.8,60.9,37.3,90.6c21.6,47.6,47,93.5,75.8,137.1c64.5,97.5,143.3,181.9,235.9,253
						c190.8,146.5,434,205.5,671.6,202.2c240.1-3.3,480.8-61.8,701.3-155.4c205-87,399.1-222.5,510-420.4
						c12.1-21.6,23.1-43.7,33-66.2c1.7-2.4,3.4-4.7,5.1-7.1c7.4-10.6,14.6-21.5,21.4-32.5c7-9.6,12.3-20.2,18.2-30.6
						c5.4-9.3,10.5-18.8,15.4-28.3c12.7-24.8,23.7-50.5,33.9-76.5c18.9-48,31.6-98.2,39-149.2c-1.7,3.9-3.3,7.9-5,11.8
						c3.8-9.4,7-18.3,8.4-29c1-7.6,1.9-14.2,2.2-21.7C2803.2,1271.7,2803.2,1265.5,2803.2,1259.2z"/>
				</g>
				<path class="st4" d="M2553.8,1071.4c-0.3-31.7-1.6-63.5-2.6-95.2c-1-31.9-3.5-63.8-7.4-95.6c-4.8-38.6-11.1-77-19.7-114.9
					c-8.2-35.7-17.3-72.5-31.1-106.6c0.7,1.6,1.4,3.2,2.1,4.9c-26.1-64.1-56.8-125.7-95.2-183.4c-36.7-55.1-78.3-108.8-126.1-154.8
					c-48.3-46.4-101.3-88.4-157.2-125.3c-56.4-37.2-116.3-67.3-178.5-93.3C1819.4,57.7,1688.7,31,1559.9,34
					c-135.2,3.1-266.6,36.3-389.3,92.4c-55.4,25.3-108.2,56.2-157.4,92.1c-47.1,34.4-87,77-123.4,122.4
					c-22.9,21.9-44.6,44.9-65.3,69c-22.2,25.9-40.5,55.8-58.1,85c-16.4,27.1-31.6,54.9-45.6,83.3C691,638.8,660.4,700.4,637.6,765
					c-23.4,66.4-45.2,133.1-59.4,202.2c-14.3,69.3-20.9,139.5-25.6,210c-4.6,69.5-3,139.4,5.1,208.6c7.8,66.4,17.6,136.7,36.1,203.8
					c18.1,65.5,41.3,130.1,72.7,190.5c7.5,14.4,15.4,28.4,23.8,42.2l-0.2-0.5c1.5,2.8,3.1,5.6,5.1,8.3c0,0,0-0.1-0.1-0.1
					c0,0,0.1,0.1,0.1,0.1c0.4,0.6,0.8,1.1,1.3,1.7c0.2,0.2,0.3,0.4,0.5,0.7c20.1,26.7,41.2,52.6,64.8,76.4
					c24.7,24.9,51.8,47,80,67.7c52.5,38.6,113.8,65.5,175.4,85.9c121.6,40.3,252.7,50.7,380.1,50.6c130.7,0,262.1-7.9,391.6-25.7
					c129.2-17.7,258.3-52.3,371.5-118.8c56.9-33.4,109.6-75.4,155.3-123c24.2-25.2,45.1-53.8,64.8-82.6c8.5-12.4,16.6-25,24.4-37.8
					c10.3-16.9,17.4-34.2,22.9-53.2c1.9-6.8,3.8-13.5,5.6-20.3c1.7-6.3,4-13.3,5-20.2c5.9-12.6,10.7-25.9,15.8-38.8
					c5.9-14.8,11.4-29.8,16.5-44.9c5.1-14.9,9.4-30.1,14-45.1c4.8-15.7,10.8-31.1,15.6-46.8c19.2-62.8,32.3-127.2,40.2-192.3
					C2548.4,1199.9,2554.4,1135.8,2553.8,1071.4z"/>
				<g>
					<path class="st5" d="M2435.5,1156.4c-0.4-6.8-0.9-13.7-1.4-20.5c-0.1-1.5-0.2-2.9-0.4-4.4c-0.3-1.9-0.5-3.7-0.8-5.6
						c0-0.1,0-0.2,0-0.3c1.2-2-0.4-9.4-0.5-11.7c-0.8-13.7-1.9-27.3-3.3-40.9c-3.1-30.5-7.5-60.9-13.3-91c-5.3-27.3-12.5-54.1-19-81
						c-6.1-25.4-13.4-50.4-21.9-75.1c-16.4-47.8-36.9-94.5-61.1-138.8c-23-42.1-44.6-84.9-71-124.9c-0.1-0.2-4.7-7.4-4.9-7.3
						c0.4,1.2,0.9,2.4,1.3,3.5c2.8,7.4,1.6,4.8-3.6-8c-1.7-2.6-3.8-5.3-5.9-7.8c-0.5-0.8-1-1.5-1.4-2.3c-1.8-2.8-3.5-5.6-5.3-8.4
						c-6.5-10-13.2-19.9-20.1-29.7c-16.2-22.9-33.5-45.1-51.6-66.6c-13.7-16.2-28-31.7-42.8-46.8c-9.6-11.6-22.8-20-35-28.9
						c-6.8-4.9-13.7-9.7-20.6-14.4c-13.2-8.9-26.7-17.4-40.4-25.5c-33.4-19.6-68.2-35.6-103.8-50.6c-30.4-12.8-61.7-23.8-93.7-31.7
						c-39-9.6-78.9-15.6-118.8-19.8c-111.4-11.7-225,2.2-331,38.1c-10,1.1-20,2.4-30,3.7c-14.2-1.4-27.2,1.8-40.8,9.1
						c-4.3,2.3-8.6,4.8-12.9,7.2c-8.2,4.6-16.4,9.3-24.4,14.1c-16.5,9.8-32.8,20-48.8,30.7c-19.7,13.1-38.7,26.7-56,42.8
						c-13.8,12.7-27.2,25.8-40.3,39.2c-26.6,27.3-51.8,56-75.5,85.8c-13.8,17.4-27.3,35.1-40.3,53.1c-2.6,3.6-5.4,7.1-7.7,10.9
						c-0.7,1.1-1.1,1.8-1.2,2.1c-2.2,2.9-4.3,6-6.2,9c-5.2,8.2-10,16.8-14.8,25.3c-4.4,7.7-9,15.4-12.9,23.4c-1.3,3.2-2.7,6.3-4,9.5
						c0.6-1.6,1.1-3.1,1.7-4.7c0,0-4.2,6.2-4.5,6.7c-3,4.5-5.9,8.9-8.9,13.4c-10.2,15.8-20.1,31.8-29.4,48.1
						c-20,34.6-38,70.4-53.9,107c-17.5,40.1-33,81-45.9,122.8c-12.3,39.9-27,78.8-37.6,119.2c-6,22.9-11.3,46.1-15.8,69.4
						c-0.4,1.9-0.7,3.9-1.1,5.8c-0.3,2-0.7,3.9-1.3,5.7c-1.9,14-2.1,16-0.8,5.9c-1.1,0.2-2.9,14.3-3.2,15.9
						c-2.1,11.1-4.1,22.2-5.9,33.3c-8.1,50.6-13.5,101.7-15.1,152.9l0.6-4.3c-1.3,14.8-0.1,29.3,1,44.3c1,14,2.3,28,3.8,41.9
						c3.6,31.7,8.1,63.4,14.8,94.6c12.2,57.2,32.1,113.6,60.8,164.7c15.4,27.5,35.9,54.3,59.1,76c22.4,21.1,48.8,38.5,75.6,53.6
						c11.4,6.4,23.1,12.5,34.9,18.1c6,2.9,12,5.7,18,8.3c1.8,0.8,3.7,1.6,5.5,2.3c0.9,0.8,2.6,1.4,3.5,1.9c3.3,1.9,6.6,3.6,10,5.4
						c23.9,12.7,48.4,24.2,73.2,35.1c28.9,12.7,58,24.7,87.4,36c3.2,1.2,6.7,3.1,10,3.8c3.9,0.8-0.7-0.8-1.1-0.9
						c2.6,0.5,11.6,4.9,11.1,4.7c6.6,2.7,13.3,5.4,20,8c13.8,5.5,27.7,10.7,41.7,15.8c55.4,20,112.1,36.8,169.7,49
						c14,3,28.1,5.7,42.2,8.1c7.1,1.2,14.1,2.3,21.2,3.4c3.5,0.5,7.1,1,10.6,1.5c1.5,0.2,3,0.4,4.6,0.6c7.6,1.2,9.8,1.5,6.8,0.9
						c-1.1-0.2-0.9-0.2,0.9,0.1c30.3,4.4,60.7,8.4,91.3,10.5c53.4,3.6,107.2,2.2,160.3-4.7c108.3-14,215.1-47.4,307-107.7
						c46.5-30.5,88.9-67.3,126-108.7c37.4-41.7,72.5-85.3,102.8-132.4c14.6-22.6,28.6-45.6,40-70c13.5-28.8,25.9-58.1,37-87.8
						c19.6-52.3,35.1-106.2,46-161c6.2-31.2,12.5-63.3,13.3-95.1C2437.6,1211.9,2437.1,1184.1,2435.5,1156.4z"/>
					<path class="st5" d="M861.3,1163.4c0,0.1,0,0.3-0.1,0.4c-0.1,0.6-0.1,1.2-0.2,1.8C860.9,1166.2,861,1166,861.3,1163.4z"/>
				</g>
				<g>
					<path class="st6" d="M2286.6,1016.9c-4.2-29.8-10-59.4-18.7-88.3c-10.8-35.7-24.7-70.2-39.6-104.3
						c-22.2-50.6-49.7-98.8-82.2-143.6c-35.1-48.4-73.6-94.2-118.1-134.1c-44.7-40.1-94.1-75.9-147.5-103.7
						c-56.1-29.2-116.4-52.2-178.5-64.7c-63.1-12.7-129.2-18.9-193.5-11.7c-36.1,4.1-72,9.6-107,19.5c-13.8,3.9-27.4,8.4-40.7,13.5
						c-13,4.9-25.8,10.5-38.6,16c-6.1,2.6-12.3,5.2-18,8.6c-12.1,7.1-26.6,15-37.9,24.4c-8.5,6-16.6,13.3-24.5,19.9
						c-5.5,4.6-11.3,9.4-16.4,14.7c-16.7,13.4-32,28.8-46.3,44.4c-7.5,8.2-14.7,16.7-21.6,25.4c-6.5,8.2-12.9,16.5-19.2,24.9
						c-3.1,4.2-6.9,8.5-9.4,13.3c-9.1,11.9-17.8,25.2-24.1,38.8c-0.2,0.3-0.3,0.5-0.5,0.8c-7.7,10.2-15.2,20.4-22.7,30.7
						c1.3-1.6,2.5-3.3,3.8-4.9c-18.9,24.9-35,52.3-50.5,79.3c-7.3,12.6-14.4,25.4-21.2,38.4c-5.2,9.9-9,20.8-13.1,31.3
						c-2.8,7.1-6.1,14.4-7.9,21.8c0.8-1.8,1.5-3.6,2.3-5.4c-3.3,8.4-5.5,16.7-7.4,25.8c-1.7,7.8-4.7,17.6-5.2,26.1
						c-1.4,5.8-1.9,12-2.8,17.8c-1.2,7.8-3.2,16.2-3.3,24.4c-3.2,11.3-5,23.2-6.9,34.7c-0.4,2.5-3.5,13.6-1.2,8
						c1.7-4.2-0.6,1.6-0.7,2.4c-0.6,2.7-1.2,5.5-1.7,8.3c-1.4,6.9-2.6,13.8-3.8,20.8c-4.6,27.9-7.6,56.2-9.8,84.4
						c-4.3,54.4-0.9,109.8,11.3,163c6.2,27.3,15.2,53.7,26.2,79.4c5,11.6,10.4,23.1,16.4,34.2c5.8,10.7,10.7,21.9,16.5,32.6
						c5.8,10.6,12,21,18.5,31.2c3.1,4.8,6.2,9.7,9.4,14.3c1.3,1.8,2.7,3.5,4.1,5.3c0.2,0.3,0.4,0.5,0.6,0.8c3.4,4.5,6.9,9,10.3,13.4
						c15.1,19.3,31.5,37.5,48.9,54.7c36.7,36.3,77.8,68.4,120.7,97.1c22.5,15.1,45.7,29.8,69.9,42.1c27.8,14.1,56.5,26.6,85.5,38.1
						c104.6,41.4,219,62.3,331.4,52.3c52.9-4.7,105.5-14.6,155.8-31.7c27.2-9.3,54-20.4,79.9-33c21.6-10.5,43.3-21,64.1-33
						c14.8-8.6,28.7-17.8,42.3-28.3c-4.4,3.4-8.7,6.7-13.1,10.1c27.2-19.1,53.9-38.8,78.3-61.4c-1.7,1.3-3.4,2.6-5.1,4
						c6.2-5.1,11.5-10.3,17.2-16.5c5-5.5,9.8-11.1,14.5-16.9c12.3-15,24.2-30.4,35.2-46.4c15.9-23,29.8-47.4,41.7-72.8
						c26.2-55.9,45.7-114.3,54.5-175.5c5-34.9,8.8-69.7,8.9-104.9C2295.7,1089.6,2291.7,1053.3,2286.6,1016.9z"/>
					<path class="st6" d="M1022.4,971.7c-0.1,0.1-0.2,0.1-0.3,0.3c-0.6,1.4-1,2.2-1.1,2.7c0,0.1,0,0.2-0.1,0.3
						c0.1-0.2,0.4-0.8,0.8-1.8C1022,972.7,1022.2,972.2,1022.4,971.7z"/>
					<path class="st6" d="M1066.6,1352.2C1066.6,1352.2,1066.6,1352.2,1066.6,1352.2c0,0.1,0.1,0.1,0.1,0.1c0.2,0.2,0.4,0.5,0.6,0.7
						C1068.5,1354.4,1070.1,1355.9,1066.6,1352.2z"/>
				</g>
			</g>
			<g>
				<g>
					<path class="st7" d="M2307.8,1772.1l-27.9-81l14-61.7c0,0-83.3-84.8-116.3-290.4c-33-205.6-136.6-288.1-136.6-288.1
						l-147.5-238.3l-329.8-238.8l-323.3,238.8L1093,1050.9c0,0-103.6,82.5-136.6,288.1c-33,205.6-116.3,290.4-116.3,290.4l14,61.7
						l-27.9,81l27.9,36.4c0,0-33,34.4-27.3,154.4l740.2,289.2l740.2-289.2c5.7-120-27.3-154.4-27.3-154.4L2307.8,1772.1z"/>
					<g>
						<path class="st8" d="M1063.2,1502.4c-29.5,9.6-57,22.5-82.7,40c-25.5,17.4-49.4,37.7-71,59.8c-12.3,12.7-24,26-34.8,39.9
							c-0.2,0.2,0.1,0.5,0.3,0.3c39-48.2,87.9-85.8,142.9-114.2c15.3-7.9,30.6-16.1,46.4-23
							C1066,1504.5,1064.9,1501.8,1063.2,1502.4z"/>
						<path class="st8" d="M840.2,1629.4l10.1,44.4c0.2-5.1,0.1-10.3-0.2-15.6c-0.4-6.4-0.3-13.3-1.2-20c4.8-4.1,9.5-8.2,14.2-12.4
							c23.5-21.3,45.6-44.1,64.9-69.3c22.2-28.8,43-58.4,62-89.5c0.1-0.2-0.2-0.4-0.4-0.2c-33.7,50.4-75.1,95.4-119.5,136.6
							c16.3-21.7,28.9-46.8,39.2-70.8c5.7-13.3,10.6-26.8,15-40.4c7.4-16.2,14.3-32.7,22.1-48.7c17.9-36.9,39.3-73.1,68.6-102.1
							c16-15.9,34.3-29.1,54.3-39.5c0.3-0.2,0-0.7-0.3-0.5c-35.9,15.8-64.6,44.9-87.4,76.1c-12.4,16.9-23.1,34.8-33.2,53.1
							c-4.2,7.6-8.4,15.3-12.5,23c6-21.8,11.4-43.7,17.3-65.6c14.2-51.9,24.7-104.9,44.6-155.1c18.7-47,44-90.9,71.9-133
							c15.9-24,32.2-47.9,48.5-71.5c16.3-23.6,31.2-48.1,47.5-71.7c0.4-0.6-0.5-1.2-0.9-0.7c-8.6,9.7-17.2,19.2-26.2,28.4
							c-4.7,4.8-9.3,9.8-13.8,14.9l-32,51.7c0,0-24.8,19.8-54.1,64.1c-10,16.2-19.6,32.8-28.4,49.6
							c-21.7,43.8-42.4,101.3-54.1,174.3C923.4,1544.6,840.2,1629.4,840.2,1629.4z"/>
						<path class="st8" d="M846.2,1840.5c19.4-35.3,49.8-63.7,85.6-81.9c20.6-10.4,43.4-15.8,66.2-18.6c0.5-0.1,0.6-0.8,0-0.9
							c-41.1-0.9-83.8,14.9-116.1,39.9c-9.9,7.6-18.9,16.3-26.9,25.9c-2.8-6-5.6-12-8.4-17.9c-2.2-4.6-4.3-9.6-6.8-14.2
							c11.2-10.5,23.6-19.4,37.1-26.8c33.7-18.7,76.1-27.5,114.4-21.4c0.9,0.1,1.2-1.1,0.4-1.3c-15.5-3.8-31.1-6.5-47.1-6.3
							c-16.1,0.3-32.2,2.7-47.6,7.4c-23.6,7.3-47.5,20.6-65.8,38.2c1.4-3.2,2.8-6.4,4.3-9.6c9.6-12.2,21.3-23.5,33.2-33.1
							c30.4-24.5,69-37.6,108.1-36.2c23.8,0.8,46.7,7,67.9,17.8c0.4,0.2,0.8-0.4,0.4-0.7c-35.9-22.9-81.7-31.1-123.3-21.9
							c-21.3,4.7-40.9,13.6-57.7,26.2c0.9-1.6,1.9-3.2,2.8-4.8c4.9-8.2,10.3-16.1,15.7-24c10.6-15.6,23.2-29.4,35-44.2
							c13.9-17.6,29.4-32.8,47.8-45.7c0.4-0.2,0-0.8-0.3-0.6c-16.6,10.4-33.6,21-49.1,33c-7.9,6.1-15.3,12.1-22.2,19.3
							c-6.8,7.1-13.3,14.5-19.5,22.1c-7.3,8.9-14.3,18.4-20.7,28.3l0.6,2.7l-27.9,81l27.9,36.4c0,0-17.5,18.2-24.8,74.4
							C833.2,1868.1,838.9,1853.9,846.2,1840.5z"/>
					</g>
					<g>
						<path class="st8" d="M2070.9,1502.4c29.5,9.6,57,22.5,82.7,40c25.5,17.4,49.4,37.7,71,59.8c12.3,12.7,24,26,34.8,39.9
							c0.2,0.2-0.1,0.5-0.3,0.3c-39-48.2-87.9-85.8-142.9-114.2c-15.3-7.9-30.6-16.1-46.4-23
							C2068,1504.5,2069.2,1501.8,2070.9,1502.4z"/>
						<path class="st8" d="M2293.9,1629.4l-10.1,44.4c-0.2-5.1-0.1-10.3,0.2-15.6c0.4-6.4,0.3-13.3,1.2-20
							c-4.8-4.1-9.5-8.2-14.2-12.4c-23.5-21.3-45.6-44.1-64.9-69.3c-22.2-28.8-43-58.4-62-89.5c-0.1-0.2,0.2-0.4,0.4-0.2
							c33.7,50.4,75.1,95.4,119.5,136.6c-16.3-21.7-28.9-46.8-39.2-70.8c-5.7-13.3-10.6-26.8-15-40.4c-7.4-16.2-14.3-32.7-22.1-48.7
							c-17.9-36.9-39.3-73.1-68.6-102.1c-16-15.9-34.3-29.1-54.3-39.5c-0.3-0.2,0-0.7,0.3-0.5c35.9,15.8,64.6,44.9,87.4,76.1
							c12.4,16.9,23.1,34.8,33.2,53.1c4.2,7.6,8.4,15.3,12.5,23c-6-21.8-11.4-43.7-17.3-65.6c-14.2-51.9-24.7-104.9-44.6-155.1
							c-18.7-47-44-90.9-71.9-133c-15.9-24-32.2-47.9-48.5-71.5c-16.3-23.6-31.2-48.1-47.5-71.7c-0.4-0.6,0.5-1.2,0.9-0.7
							c8.6,9.7,17.2,19.2,26.2,28.4c4.7,4.8,9.3,9.8,13.8,14.9l32,51.7c0,0,24.8,19.8,54.1,64.1c10,16.2,19.6,32.8,28.4,49.6
							c21.7,43.8,42.4,101.3,54.1,174.3C2210.6,1544.6,2293.9,1629.4,2293.9,1629.4z"/>
						<path class="st8" d="M2287.8,1840.5c-19.4-35.3-49.8-63.7-85.6-81.9c-20.6-10.4-43.4-15.8-66.2-18.6c-0.5-0.1-0.6-0.8,0-0.9
							c41.1-0.9,83.8,14.9,116.1,39.9c9.9,7.6,18.9,16.3,26.9,25.9c2.8-6,5.6-12,8.4-17.9c2.2-4.6,4.3-9.6,6.8-14.2
							c-11.2-10.5-23.6-19.4-37.1-26.8c-33.7-18.7-76.1-27.5-114.4-21.4c-0.9,0.1-1.2-1.1-0.4-1.3c15.5-3.8,31.1-6.5,47.1-6.3
							c16.1,0.3,32.2,2.7,47.6,7.4c23.6,7.3,47.5,20.6,65.8,38.2c-1.4-3.2-2.8-6.4-4.3-9.6c-9.6-12.2-21.3-23.5-33.2-33.1
							c-30.4-24.5-69-37.6-108.1-36.2c-23.8,0.8-46.7,7-67.9,17.8c-0.4,0.2-0.8-0.4-0.4-0.7c35.9-22.9,81.7-31.1,123.3-21.9
							c21.3,4.7,40.9,13.6,57.7,26.2c-0.9-1.6-1.9-3.2-2.8-4.8c-4.9-8.2-10.3-16.1-15.7-24c-10.6-15.6-23.2-29.4-35-44.2
							c-13.9-17.6-29.4-32.8-47.8-45.7c-0.4-0.2,0-0.8,0.3-0.6c16.6,10.4,33.6,21,49.1,33c7.9,6.1,15.3,12.1,22.2,19.3
							c6.8,7.1,13.3,14.5,19.5,22.1c7.3,8.9,14.3,18.4,20.7,28.3l-0.6,2.7l27.9,81l-27.9,36.4c0,0,17.5,18.2,24.8,74.4
							C2300.8,1868.1,2295.2,1853.9,2287.8,1840.5z"/>
					</g>
					<path class="st9" d="M2295.9,1753.2c-8.4-20.2-22.5-37.1-40.3-49.8c-15.9-11.3-34.7-18.9-53.9-22.4c-9.6-1.7-19.4-2.5-29.2-1.9
						c-10,0.6-19.4,3.2-29.1,5c-12.5,2.3-24.5,7.1-36.4,11.5c-12.9,4.8-24.6,12.5-37.9,16.4c-10.6,3.1-22,2.9-31.6,0.2
						c-4.6-1.3-8.3-4.2-11.7-7.7c-0.3-0.3-0.6-0.6-0.9-0.9c0.1-2,0.3-4,0.3-6c-0.1-4.8-0.2-9.5,0.2-14.2c0-0.5,0.1-0.7,0.1-0.9
						c0.1-0.4,0.1-0.8,0.2-1.2c0.3-1.2,0.5-2.5,0.8-3.7c0.5-2.1,1-4.2,1.7-6.2c0.3-1,0.7-2.1,1.1-3.1c0.1-0.1,0.2-0.3,0.3-0.5
						c0.9-1.8,1.8-3.5,2.7-5.2c4.5-7.9,9.9-15.2,14.9-22.9c10.6-16.4,17.6-35,15.2-54.8c-2.6-21.1-12.2-39.4-25.4-55.7
						c-12.3-15.2-28.2-27-44.1-38.2c-8-5.7-16.1-11.1-24-16.9c-0.3-0.2-2-1.5-2.6-2c-0.4-0.3-1.3-1-1.2-0.9
						c-1.9-1.5-3.8-3.1-5.6-4.6c-3.5-3-6.8-6-10-9.3c-1.9-1.9-3.8-4-5.6-6c-0.6-0.7-1.2-1.4-1.8-2.1c-2.3-3.2-4.3-6.6-6.5-9.9
						c-1.3-2-2.6-4-3.8-6c-0.3-0.5-1.7-3.6-1.6-3.2c-1.4-3.5-2.6-7.1-3.4-10.8c-0.6-2.3-1-4.5-1.4-6.6c8.1-9.9,16.7-19.4,25.2-29.1
						c20.8-23.8,43.5-46.4,68.1-66.3c0.4-0.3-0.1-1-0.5-0.7c-15.1,10.5-29.9,21.1-44.6,32.1c-17.5,13-33.9,27.1-49.9,41.7
						c0.1-0.6,0.2-1.3,0.3-1.9c19.5-27.6,39.6-54.7,60-81.6c13.9-18.3,27.8-36.6,41.7-54.9c6.8-9,13.7-18,20.5-27
						c2-2.6,4.1-5.3,6.2-7.9c7.3-6.3,14.1-13.1,18.9-21.2c5.1-5.9-0.8-16.3-9.3-14.2c-12.7,3.1-23.7,11.2-33.8,19.2
						c-9.2,7.4-18.2,14.9-27.1,22.7c-15.7,13.7-30.9,28-45.2,43.2c28.1-63.7,51.3-129.6,69-196.9c2.5-9.5-7.5-16-15.7-12.1
						c-23.8,11.5-42.9,30.1-57.9,51.7c-22.7,32.8-36,70.9-47.2,109.1c-5.5,17.1-10.7,34.2-16,51.4c5.7-29,10.3-58.2,15.9-87.3
						c12.1-62.9,34.1-124.1,59.4-182.8c0.4-1-1-1.9-1.5-0.9c-14.8,32.1-28.2,64.8-40.8,97.9c-11.6,30.4-22.4,61.2-33.1,91.9
						c-9,26-16.6,52.1-22.2,78.9c-0.7-11.6-1.5-23.3-1.9-34.9c-0.8-21.9-1.1-43.5-0.9-65.4c0.5-44.3,0.3-88.7,0-133
						c0-3.9-6.1-4.9-6.9-0.9c-1.6,8-4.9,15.3-7.5,22.9c-2.3,6.9-3.9,14.1-5.8,21.1c-4.1,14.8-7.8,29.6-11.5,44.5
						c-6.4,26-11.1,52.2-16,78.5c-4.2,22.5-8.2,45.1-10.3,67.9c-0.2,2.1-0.4,4.3-0.6,6.5c-1.3-13.3-2.8-26.7-3.8-40
						c-4.8-63.6-1.7-126.8,5.4-190c1.8-15.9,1.5-31.8,3.8-47.7c2.3-16,5.8-31.3,10.4-46.8c9-30.7,19.2-61,30.3-91
						c2.3-6.3-3.8-14.4-10.5-13.8c-31.2,2.6-62.5,4.7-93.7,6.3c-7.4,0.4-14.9,0.7-22.3,1c-1.9-1.7-4.5-2.9-7.9-2.9
						c-6.4-0.1-12.6,0.3-18.7,1.1c-43.4,2.4-86.8,3.9-130.2,4.4c-43.4-0.5-86.9-1.9-130.2-4.4c-6.1-0.8-12.3-1.2-18.7-1.1
						c-3.4,0.1-6,1.2-7.9,2.9c-7.4-0.3-14.9-0.7-22.3-1c-31.3-1.6-62.5-3.7-93.7-6.3c-6.7-0.6-12.9,7.5-10.5,13.8
						c11.1,30,21.3,60.3,30.3,91c4.5,15.5,8,30.8,10.4,46.8c2.3,15.8,2,31.8,3.8,47.7c7.2,63.2,10.2,126.4,5.4,190
						c-1,13.4-2.5,26.7-3.8,40c-0.2-2.2-0.4-4.3-0.6-6.5c-2.2-22.8-6.1-45.4-10.3-67.9c-5-26.3-9.6-52.5-16-78.5
						c-3.7-14.9-7.4-29.7-11.5-44.5c-1.9-7-3.5-14.2-5.8-21.1c-2.6-7.6-5.9-15-7.5-22.9c-0.8-4-6.9-2.9-6.9,0.9
						c-0.3,44.3-0.5,88.7,0,133c0.3,21.9-0.1,43.5-0.9,65.4c-0.4,11.6-1.2,23.2-1.9,34.9c-5.6-26.8-13.2-52.9-22.2-78.9
						c-10.7-30.7-21.5-61.5-33.1-91.9c-12.6-33-26-65.8-40.8-97.9c-0.5-1-2-0.1-1.5,0.9c25.3,58.7,47.3,119.9,59.4,182.8
						c5.6,29.1,10.2,58.2,15.9,87.3c-5.2-17.2-10.5-34.3-16-51.4c-11.2-38.2-24.5-76.3-47.2-109.1c-15-21.6-34.1-40.1-57.9-51.7
						c-8.2-4-18.2,2.6-15.7,12.1c17.7,67.4,40.9,133.2,69,196.9c-14.3-15.2-29.6-29.5-45.2-43.2c-8.9-7.8-17.9-15.3-27.1-22.7
						c-10-8.1-21.1-16.2-33.8-19.2c-8.5-2.1-14.3,8.3-9.3,14.2c4.8,8.1,11.6,14.9,18.9,21.2c2.1,2.6,4.1,5.2,6.2,7.9
						c6.8,9,13.7,18,20.5,27c13.9,18.3,27.8,36.6,41.7,54.9c20.4,26.9,40.5,54,60,81.6c0.1,0.7,0.2,1.3,0.3,1.9
						c-16-14.6-32.4-28.7-49.9-41.7c-14.7-10.9-29.5-21.6-44.6-32.1c-0.4-0.3-0.9,0.4-0.5,0.7c24.6,19.9,47.3,42.5,68.1,66.3
						c8.4,9.6,17,19.1,25.2,29.1c-0.4,2.1-0.8,4.3-1.4,6.6c-0.9,3.7-2,7.3-3.4,10.8c0.1-0.4-1.4,2.7-1.6,3.2c-1.2,2.1-2.5,4.1-3.8,6
						c-2.1,3.3-4.1,6.7-6.5,9.9c-0.6,0.7-1.2,1.4-1.8,2.1c-1.8,2.1-3.7,4.1-5.6,6c-3.2,3.2-6.6,6.3-10,9.3c-1.9,1.6-3.7,3.1-5.6,4.6
						c0.1-0.1-0.8,0.6-1.2,0.9c-0.6,0.4-2.3,1.8-2.6,2c-7.9,5.8-16,11.3-24,16.9c-15.9,11.2-31.8,23-44.1,38.2
						c-13.2,16.3-22.8,34.6-25.4,55.7c-2.4,19.8,4.5,38.4,15.2,54.8c4.9,7.6,10.4,14.9,14.9,22.9c1,1.7,1.8,3.5,2.7,5.2
						c0.1,0.2,0.2,0.4,0.3,0.5c0.4,1,0.8,2,1.1,3.1c0.7,2,1.2,4.1,1.7,6.2c0.3,1.2,0.6,2.5,0.8,3.7c0.1,0.4,0.1,0.8,0.2,1.2
						c0,0.1,0,0.4,0.1,0.9c0.4,4.8,0.3,9.5,0.2,14.2c0,2,0.2,4,0.3,6c-0.3,0.3-0.6,0.6-0.9,0.9c-3.3,3.5-7,6.4-11.7,7.7
						c-9.6,2.7-21,2.9-31.6-0.2c-13.3-3.8-25-11.6-37.9-16.4c-11.9-4.4-23.8-9.2-36.4-11.5c-9.8-1.8-19.1-4.4-29.1-5
						c-9.8-0.6-19.6,0.1-29.2,1.9c-19.2,3.5-37.9,11-53.9,22.4c-17.8,12.7-31.9,29.6-40.3,49.8c-0.9,2.1,2.2,4.4,4,3.1
						c29.1-21.9,65-34.2,101.3-36.5c33.1-2,67.5,8,96.2,24.2c-42.2-4.6-85.8,3.9-123.3,24.8c-8,4.5-16,9.5-23.2,15.4
						c-6.9,5.7-12.8,12.9-18.3,19.9c-3,3.8-4,8.6-0.8,12.6c2.8,3.5,8.4,5.3,12.4,2.5c13.5-9.6,26.3-19.9,42-25.7
						c9.4-3.5,19-6.6,28.7-9.2c-33.8,19.4-62.5,48.4-81,82.5c-10.6,19.4-17.8,40.6-21.5,62.4c-1.4,8.3,2.2,16.7,10.9,19.1
						c2.1,0.6,4.3,0.7,6.4,0.3c52.8,64.8,104.5,130.4,157.3,195.2c45.4,55.7,94,115.5,167.1,133.5c74.8,18.5,150.7-6,226.1-1.1
						c30.8,2,62.9,9.7,87.9,29.1c14.2,11.1,28,25.1,46.5,28.4c3.5,0.6,6.9,0.8,10.2,0.6c3.3,0.2,6.7,0,10.2-0.6
						c18.5-3.3,32.3-17.3,46.5-28.4c25-19.4,57-27.1,87.9-29.1c75.5-4.9,151.3,19.5,226.1,1.1c73.1-18,121.7-77.8,167.1-133.5
						c52.8-64.8,104.5-130.4,157.3-195.2c2.1,0.3,4.3,0.3,6.4-0.3c8.7-2.4,12.3-10.9,10.9-19.1c-3.7-21.8-11-42.9-21.5-62.4
						c-18.5-34.1-47.2-63.2-81-82.5c9.7,2.7,19.3,5.7,28.7,9.2c15.6,5.8,28.5,16.1,42,25.7c4,2.8,9.6,1,12.4-2.5
						c3.2-4,2.2-8.8-0.8-12.6c-5.5-7-11.4-14.2-18.3-19.9c-7.1-5.9-15.1-10.9-23.2-15.4c-37.5-20.9-81-29.5-123.3-24.8
						c28.7-16.2,63.2-26.2,96.2-24.2c36.3,2.2,72.2,14.6,101.3,36.5C2293.7,1757.6,2296.7,1755.3,2295.9,1753.2z M896.1,1722.2
						c-16.9,5.8-33,13.8-48,23.5c18.6-31.8,53.8-53.3,90.6-55.9c10-0.7,20.1-0.2,29.9,1.8c4.6,1,9.5,2,13.8,3.9
						c5.5,2.5,10.8,6.6,15.6,10.3c3.7,2.9,7.2,5.9,10.8,8.8C971.3,1707.5,931.6,1710.1,896.1,1722.2z M2237.9,1722.2
						c-35.5-12.1-75.1-14.8-112.6-7.6c3.5-3,7.1-6,10.8-8.8c4.8-3.7,10-7.8,15.6-10.3c4.3-1.9,9.3-2.9,13.8-3.9
						c9.8-2,19.9-2.5,29.9-1.8c36.8,2.6,72,24.1,90.6,55.9C2270.9,1736.1,2254.8,1728,2237.9,1722.2z"/>
					<path class="st10" d="M1567,736.6l-169.1-55.9V816c0,93.4,75.7,169.1,169.1,169.1h0h0c93.4,0,169.1-75.7,169.1-169.1V680.6
						L1567,736.6z"/>
					<circle class="st11" cx="1563.8" cy="1385.5" r="220"/>
					<circle class="st12" cx="1563.8" cy="1385.5" r="213.3"/>
					<circle class="st13" cx="1563.8" cy="1385.5" r="204.5"/>
					<path class="st14" d="M1726.8,1262.1c16.1,29.2,25.3,62.8,25.3,98.6c0,112.9-91.5,204.5-204.5,204.5
						c-66.6,0-125.7-31.8-163-81.1c34.8,63.1,102,105.9,179.1,105.9c112.9,0,204.5-91.5,204.5-204.5
						C1768.2,1339.2,1752.8,1296.4,1726.8,1262.1z"/>
					<g>
						<polygon class="st15" points="1934,1877.3 1911.3,1922.2 1922.7,1978.3 1911.3,2065.7 1911.3,2217.5 2234.6,2202.7 
							2295.7,2062.4 2348.5,2008 2290.7,1897.5 2129.9,1757.3 2076.3,1719.5 2058.8,1719.5 						"/>
						<path class="st7" d="M2242.9,1937.4c-6,12.5-14.3,22.9-24,32.8c-8.8,9-19.9,15.2-30.9,21.1c-11.4,6.1-22.1,13.1-33.8,18.6
							c-2.6,1.2-5.2,2.4-7.9,3.6c-0.5,0.2-2.8,1.1-2.9,1.2c-1,0.4-2,0.8-3,1.1c-6.5,2.4-13.2,4.4-20,6c-3.1,0.7-6.3,1.4-9.5,2
							c-1.1,0.2-2.2,0.4-3.3,0.5c0,0-2.9,0.4-3.2,0.4c-6.4,0.7-12.8,1-19.3,1c-3.2,0-6.4-0.2-9.6-0.4c-1.6-0.1-3.2-0.3-4.8-0.4
							c-0.4,0-2.8-0.3-3.2-0.4c-5.7-0.9-11.5-1.9-17.1-3.3c-6.2-1.5-12.3-3.4-18.3-5.6c-1.5-0.5-3-1.1-4.5-1.7
							c-0.4-0.2-3.2-1.4-2.9-1.3c-2.4-1.1-4.8-2.2-7.2-3.4c-0.8-0.4-1.6-0.8-2.4-1.2c8.3,1.9,16.8,3.1,25.3,3.7
							c28.1,1.9,56.9-4.4,81.7-17.7c23.7-12.6,46.3-33.2,59.2-56.9c3.8-6.9,6.2-15,8.5-22.5c2.2-7.1,3-14,4-21.4
							c1.9-13.7,6.4-28.4,2.2-42.1c-0.2-0.7-1.2-0.7-1.4,0c-4.3,11.6-5.6,24.1-10.8,35.5c-2.2,4.8-5.6,9.1-8.9,13.2
							c-3.8,4.7-6.8,9.9-11,14.3c-8.2,8.6-16,17.6-24.7,25.6c-1.9,1.8-3.8,3.5-5.8,5.2c-0.9,0.8-1.8,1.5-2.8,2.3
							c-0.3,0.2-2.3,1.8-2.4,1.9c-5,3.7-10.3,7-15.7,10c-4.5,2.5-9.2,4.8-14,6.9c-0.3,0.1-2.6,1-2.9,1.1c-1.5,0.5-2.9,1.1-4.4,1.6
							c-3,1-5.9,1.9-8.9,2.7c-3,0.8-6.1,1.5-9.1,2c-1.3,0.2-2.6,0.4-3.8,0.7c-0.1,0-0.2,0-0.3,0.1c-0.1,0-0.1,0-0.2,0
							c-6.1,0.6-12.3,1-18.5,0.9c-3.8-0.1-7.5-0.3-11.3-0.7c0.1,0,0.2,0,0.3,0c29.4-3.7,56.5-17.9,77-39.2
							c23.7-24.6,38-58.1,37.6-92.4c-0.2-18-4.3-34.6-11-51.2c-6.3-15.7-16.5-28.8-26.8-42c-0.9-1.1-2.3,0.3-1.8,1.4
							c6.1,14.1,8.2,29.8,10.2,44.8c1.9,14.5,1.4,30.6-0.6,45.1c-0.6,4.6-2.5,12.9-4,18.9c-0.9,3.5-1.8,7-3,10.4
							c-0.6,1.7-1.2,3.4-1.8,5.1c-0.3,0.7-0.5,1.4-0.8,2.1c0,0.1-0.3,0.6-0.6,1.4c-2.9,5.7-5.8,11.3-9.4,16.6
							c-0.9,1.3-1.8,2.6-2.8,3.9c-0.2,0.3-0.4,0.6-0.5,0.8c-0.2,0.2-0.4,0.4-0.7,0.8c-2.4,2.8-4.8,5.7-7.4,8.3
							c-2.2,2.3-4.5,4.5-6.9,6.6c-1.2,1.1-2.4,2.1-3.6,3.1c-0.3,0.3-0.5,0.5-0.7,0.6c-0.2,0.1-0.4,0.3-0.8,0.5
							c-5.6,4-11.4,7.6-17.6,10.6c-1,0.5-2,0.9-3,1.4c-0.5,0.2-2.5,1-2.8,1.1c-2.9,1.1-5.9,2.1-9,2.9c-3,0.8-6.1,1.4-9.2,2
							c-0.3,0.1-0.6,0.1-0.8,0.2c-0.2,0-0.4,0-0.6,0c-2.1,0.2-4.2,0.4-6.3,0.5c-3.1,0.1-6.3,0.1-9.4,0c-1-0.1-1.9-0.1-2.9-0.2
							c0.6,0-2.5-0.3-3.1-0.4c-3-0.6-6.1-1.3-9-2.2c-1.5-0.4-3-0.9-4.4-1.4c-0.5-0.2-4-1.6-4.2-1.6c-5.2-2.4-10.3-5.2-15-8.5
							c-0.9-0.6-1.8-1.3-2.6-1.9c-0.5-0.4-2-1.7-2.3-1.9c-2.7-2.4-5.3-4.9-7.8-7.5c-1.1-1.1-2.1-2.3-3.1-3.5
							c-0.2-0.3-1.6-2.1-1.9-2.4c-1.5-2.1-2.9-4.2-4.2-6.4c-1.6-2.6-2.9-5.3-4.3-8.1c-0.1-0.2-0.2-0.4-0.3-0.6
							c-0.1-0.2-0.1-0.4-0.2-0.7c-0.6-1.9-1.3-3.8-1.9-5.8c-2.3-8-3.7-16.3-11.1-21.2l-9.9,12.5l-22.7,45l11.3,56.1l-11.3,87.4
							v151.8l265.1-12.2c-5.6-39.5-24.2-77.2-51.9-105.7c-15.9-16.3-34.8-28.3-54.9-38.5c16.6,1.1,33.4-0.2,49.9-3.6
							c27.9-5.9,58.2-18.6,78.8-38.8c11.3-11,19.4-25,27.1-38.7c7.6-13.5,14-27.4,19.5-41.9
							C2245.2,1937.1,2243.4,1936.3,2242.9,1937.4z"/>
						<path class="st16" d="M1924,1756.6l21.3,151.3c0,0,59.1,76.2,144.9,4.4c61.8-51.7,46.4-129.8,46.4-129.8l-60.4-113.8
							l-95.9,50.8L1924,1756.6z"/>
						<path class="st17" d="M2022.4,1486.7c39.6,85.7,24.2,131.9,49.5,169.3s-61.6,124.3-121,115.5c-59.4-8.8-75.3-76.9-75.3-76.9
							l83-109L2022.4,1486.7z"/>
						<path class="st18" d="M2022.4,1486.7L1902,1369.6c0,0-105.6-41.2-155.1-75.9c-4.9,36.3,23.1,61,57.7,79.2s57.7,29.7,57.7,29.7
							l64.3,72.6l-77.5-49.5l-127-51.1c0,0-26.4,18.1-19.8,39.6l127,57.7l103.9,90.7l-115.5-23.1c0,0-120.4-74.2-145.2-37.9
							l29.7,24.7l-3.7,33l49.9,46.2c0,0,123.7,99,156.7,100.6c33,1.6,26.4-33,37.9-46.2c11.5-13.2,28-18.1,42.9-34.6
							s1.6-31.3,11.5-47.8C2007.5,1560.9,2038.9,1541.2,2022.4,1486.7z"/>
						<polygon class="st16" points="1702.4,1526.3 1788.8,1579 1889.3,1620.1 1783.8,1593 						"/>
					</g>
					<g>
						<polygon class="st15" points="1217.8,1877.3 1240.5,1922.2 1229.1,1978.3 1240.5,2065.7 1240.5,2217.5 917.1,2202.7 
							856.1,2062.4 803.3,2008 861,1897.5 1021.9,1757.3 1075.5,1719.5 1093,1719.5 						"/>
						<path class="st7" d="M1052.4,2151c-11,17.5-19.2,36.7-23.5,56.8l211.5,9.7v-151.8l-11.3-87.4l11.3-56.1l-22.7-45l-8-10.1
							c-1.2,0.3-2.5,0.7-3.7,1.4c-4.6,2.5-7.6,6-9.8,10.1c-1.8-0.3-3.6-0.3-5.6,0.1c-1.8,0.4-4.9-0.4-6.9-0.6
							c-2.7-0.2-5.4-0.4-8.1-0.6c-4.7-0.4-9.5-0.8-14.2-1.3c-9.7-1-19.4-2.5-28.9-4.8c-16.4-3.9-32.3-10.1-45.8-20.4
							c-12.3-9.4-22.6-22.3-26.6-37.4c-2.1-7.9-2.6-16.9,1-24.4c1.5-3.1,3.5-7,5.4-9.7c1.2-1.7,3-2.8,4.2-4.4
							c1.4-1.9,1.4-2.1,3.5-2.8c6.6-2.3,6.1-14-1.8-13.1c-3.6,0.4-7.7,0.5-11.3,1.2c-0.7,0.1-1.3,0.3-1.9,0.6
							c0.7-1.1,1.4-2.2,2.2-3.3c6-7.9,13.8-13.1,21-19.5c0.5-0.5,0.1-1.6-0.6-1.5c-9,0.8-16.4,6.1-23.4,11.7
							c-7.6,6.1-14.7,13.7-19.5,22.2c-10.8,19.1-12.8,41.1-7.4,62.2c11.6,45.4,53.8,75.2,98.5,82.2c13.7,2.1,30.4,3.2,45.3-0.2
							c-2.2,2.4-4.6,4.8-7,7c-0.8,0.7-1.6,1.4-2.4,2.1c-0.1,0.1-2,1.6-2.3,1.9c-1.8,1.4-3.7,2.7-5.5,3.9c-4.6,3-9.4,5.7-14.4,8
							c-0.4,0.2-1.4,0.6-1.9,0.8c-0.9,0.4-1.8,0.7-2.8,1c-2.5,0.9-5,1.6-7.5,2.3c-2.3,0.6-4.6,1.1-6.9,1.6c-1.3,0.3-2.6,0.5-3.9,0.7
							c-0.1,0-3.1,0.3-3.2,0.3c-22.3,1.8-43.1-3.2-62.2-14.5c-18.2-10.8-33-27.6-44-47.1c-6.1-10.9-12.1-23.1-14.7-35.4
							c-3.1-14.1-3.4-28.6-1.1-42.8c0.1-0.6-0.6-0.8-0.8-0.2c-4.5,12.3-7.7,25.4-8.8,38.5c-1.1,13.4-1.6,26.8,1.2,40.1
							c6,28.4,22.2,52.3,45.4,69.5c34.9,26,81.1,32.4,120.6,17.3c-0.1,0.1-0.2,0.2-0.3,0.2c-4.8,3.2-9.7,6.1-14.8,8.7
							c-2.6,1.3-5.3,2.6-8,3.8c-0.2,0.1-0.4,0.2-0.7,0.3c-1.9,0.7-3.9,1.5-5.8,2.1c-5.4,1.8-10.9,3.3-16.5,4.5
							c-2.7,0.6-5.4,1.1-8.1,1.5c-0.6,0.1-1.6,0.2-2,0.2c-1.8,0.2-3.6,0.3-5.4,0.4c-5.7,0.3-11.5,0.3-17.2-0.2
							c-1.1-0.1-2.3-0.2-3.4-0.3c-0.2,0-2.8-0.4-3.1-0.4c-3.1-0.5-6.2-1-9.2-1.6c-5.6-1.2-11.1-2.7-16.5-4.6
							c-6.3-2.2-10.8-4.4-15.9-6.6c-5.8-2.6-10-5-15.9-8.3c-5.1-2.8-10.7-5.4-15.4-8.9c-5.4-4.1-11.1-7.8-16.1-12.6
							c-4.9-4.8-9-10.5-12.7-16.3c-7.5-11.7-12.9-24.5-16.2-38c-0.1-0.5-1.1-0.4-1,0.1c1.5,12.4,4.7,24.5,9.6,36.1
							c4.9,11.6,11.1,23.7,18.4,34.1c7.8,11.1,14.6,21.4,25.2,30c5.8,4.7,11.4,9.3,17.9,12.9c6.4,3.5,13,6.5,19.8,9.1
							c51.2,20.1,109,4.4,149.4-31c-1.4,2.3-2.8,4.6-4.3,6.9c-1.5,2.2-3,4.4-4.6,6.6c-0.1,0.1-1.8,2.3-1.9,2.5
							c-1.1,1.4-2.2,2.7-3.3,4.1c-7.8,9.2-16.5,17.5-25.9,25c-0.2,0.1-0.3,0.2-0.4,0.3c-0.2,0.1-0.4,0.3-0.6,0.4
							c-1.3,0.9-2.6,1.9-3.9,2.8c-2.2,1.5-4.4,3-6.7,4.4c-5.4,3.4-11.1,6.4-16.9,9.1c-0.1,0-2.8,1.2-2.9,1.3c-1.2,0.5-2.4,1-3.6,1.4
							c-2.5,0.9-5.1,1.8-7.6,2.6c-6.1,1.9-12.4,3.7-18.7,5c-6.3,1.3-10.1,1.9-15.2,2.4c-7.1,0.6-11.7,1-19.4,1
							c-5.3,0-10.9-0.1-16.1-0.7c-6.5-0.8-12.6-0.7-19.3-1.5c-13.3-1.7-26.5-5.3-38.9-10.4c-13.6-5.5-25.4-15-35.8-25.2
							c-0.5-0.5-1.3,0.3-0.8,0.8c9,10.1,19.5,18.1,29.9,26.8c9.9,8.3,20.6,15.3,32,21.3c5.7,3,11.6,5.6,17.5,8
							c6.6,2.7,13,4.5,20.1,5.8c15.2,2.7,27,3.8,42.1,2.7c8.7-0.6,17.2-2,25.5-3.9C1088.4,2104.7,1068.1,2125.8,1052.4,2151z"/>
						<path class="st16" d="M1249.2,1786.6l-38.4,110.9c0,0-132-3.3-156.7-66c-24.7-62.7,9.9-90.7,9.9-90.7l29.1-21.3h54.2
							L1249.2,1786.6z"/>
						<path class="st17" d="M1197.5,1533.9c-34.1,52.8-55,132.4-104.5,185.5c0,0,20.9,87.2,92.4,83.9c71.5-3.3,111.5-47.6,119-87.6
							c7.5-40-48.6-70.8-48.6-70.8L1197.5,1533.9z"/>
						<path class="st18" d="M1197.5,1533.9c-3.3,19.8,6.6,25.7,5.5,39.3c-1.1,13.5-7.5,33,0.1,46.9s17.5,26,23,35.9
							s16.5,43.1,28.6,50.2c12.1,7,31.9,22.4,56.1,5.9c24.2-16.5,71.5-62.7,71.5-62.7s53.9-31.9,42.9-55c0,0,62.7-3.3,60.5-35.2
							c0,0-85.8,3.3-112.2,0l-63.8,14l34.2-33.8c0,0,128.6-23.1,120.9-70.4c-42.9,8.8-96.8,23.3-146.3,30.9l-22,6.5l17.6-84.7
							c0,0,75.9-48.4,55-97.9c-30.8,33-103.4,70.4-103.4,70.4S1261.3,1495.4,1197.5,1533.9z"/>
						<g>
							<path class="st16" d="M1309.7,1573.2l34.2-33.8c0,0,23.3-4.2,49.5-12.6c-19.3,5.7-72.1,12.6-72.1,12.6l-72.1,42.9
								L1309.7,1573.2z"/>
							<path class="st16" d="M1396.5,1525.7c-0.5,0.1-1.1,0.3-1.7,0.6c0,0,0,0,0,0C1395.4,1526.1,1395.9,1525.9,1396.5,1525.7z"/>
						</g>
						<path class="st16" d="M1415.2,1582.3c0,0-66,41.4-82.5,47.1S1269,1645,1269,1645l67.1-39.5L1415.2,1582.3z"/>
					</g>
					<circle class="st12" cx="1498.4" cy="1295.5" r="98"/>
					<circle class="st19" cx="1477.6" cy="1273.7" r="65.4"/>
					<circle class="st12" cx="1596.4" cy="1378.6" r="39.6"/>
					<circle class="st12" cx="1644.7" cy="1533.2" r="42.1"/>
					<circle class="st19" cx="1652.2" cy="1545.8" r="23.2"/>
					<g>
						<path class="st18" d="M1789.8,397.9l-34.6-107.2l-191.4-54.4l-191.4,54.4l-34.6,107.2c0,0-4.9,188.1,51.1,270.5
							c36.3,53.4,98.8,90.8,138.4,110.7c22.9,11.5,49.9,11.5,72.9,0c39.6-19.8,102.1-57.3,138.4-110.7
							C1794.7,586,1789.8,397.9,1789.8,397.9z"/>
						<path class="st17" d="M1634.4,610.8l-67.4,15.8l-67.4-15.8c10.2,20.2,33.9,35.6,33.9,35.6s-8.6,8.2-16.9,13.7
							c29-6.6,50.5-6.6,50.5-6.6c0,0,21.4,0,50.5,6.6c-8.4-5.5-16.9-13.7-16.9-13.7S1624.2,631,1634.4,610.8z"/>
						<g>
							<path class="st20" d="M1583.5,597.6l-16.5,9.5l-16.5-9.5l-50.9,13.2c28.5,34.9,67.4,31.6,67.4,31.6s38.9,3.3,67.4-31.6
								L1583.5,597.6z"/>
							<path class="st21" d="M1594.5,574.5c-12.1,0-27.5,10.6-27.5,10.6s-15.4-10.6-27.5-10.6s-42.2,35.2-56.5,37.4
								c22.7,0.7,51.7-11.4,84-4.8c32.3-6.6,61.2,5.5,84,4.8C1636.7,609.7,1606.6,574.5,1594.5,574.5z"/>
							<g>
								<path class="st22" d="M1484.4,611.6c-0.5,0.1-0.9,0.2-1.3,0.3c0.2,0,0.4,0,0.7,0C1484,611.8,1484.2,611.7,1484.4,611.6z"/>
								<path class="st22" d="M1649.2,611.5c-28.9-1.6-51.2-12.8-82.2-7.5c-27.8-4.7-52.5,5.3-79.1,7.9c21.9-0.8,49.1-10.9,79.1-4.7
									c32.3-6.6,61.2,5.5,84,4.8C1650.4,611.8,1649.8,611.7,1649.2,611.5z"/>
							</g>
							
								<ellipse transform="matrix(0.9227 -0.3855 0.3855 0.9227 -108.2596 640.1814)" class="st23" cx="1542.3" cy="590.1" rx="3.3" ry="6.5"/>
							
								<ellipse transform="matrix(0.4396 -0.8982 0.8982 0.4396 358.0266 1758.8314)" class="st23" cx="1588.5" cy="592.5" rx="4.1" ry="1"/>
							
								<ellipse transform="matrix(0.172 -0.9851 0.9851 0.172 676.6393 2044.0392)" class="st23" cx="1554.3" cy="619.5" rx="4.1" ry="1"/>
							
								<ellipse transform="matrix(0.172 -0.9851 0.9851 0.172 673.2223 2038.1542)" class="st23" cx="1549.1" cy="618.6" rx="4.1" ry="1"/>
							
								<ellipse transform="matrix(0.172 -0.9851 0.9851 0.172 668.9645 2027.8667)" class="st23" cx="1540.8" cy="616" rx="1.7" ry="1"/>
							
								<ellipse transform="matrix(0.172 -0.9851 0.9851 0.172 664.5403 2019.2446)" class="st23" cx="1533.5" cy="614.3" rx="1.7" ry="1"/>
							
								<ellipse transform="matrix(0.4396 -0.8982 0.8982 0.4396 360.6485 1766.7599)" class="st23" cx="1596.1" cy="594.4" rx="1.7" ry="1"/>
						</g>
						<path class="st24" d="M1386.1,410.5c5.2-3.6,7.7-9.6,7.7-9.6l0,0c-1.1-0.6-1.6-0.9-1.6-0.9c37.8,10.3,85.1,4.4,109.2-15.4
							c-20.4,22.3-50.2,30.5-72.1,27.5c-1.6,2.7-8.3,6.2-8.3,6.2l1.6-5.3c-2.7,3.1-10.4,4.6-10.4,4.6l1.6-4.6
							c-3.1,3.3-15.1,3.2-15.1,3.2l3.6-4.9c-3.8,2.7-13.7,1.7-13.7,1.7l5.2-5L1386.1,410.5z"/>
						<path class="st24" d="M1608.4,301l4.9,19.8c20.8,6.6,94.4-11.2,129.3,13.9C1704.5,291.5,1629,311.3,1608.4,301z"/>
						<path class="st24" d="M1525.6,301l-4.9,19.8c-20.8,6.6-94.4-11.2-129.3,13.9C1429.5,291.5,1505.1,311.3,1525.6,301z"/>
						<path class="st16" d="M1609.4,489.1c0.8,7.3-6.6,9.1-13.7,9.6c-7.1,0.5-13.2,7.1-28.6,7.1s-21.4-6.6-28.6-7.1
							c-7.1-0.5-14.6-2.3-13.7-9.6c-9.6,14.2,0,18.5,10.2,21.2c10.2,2.8,13.7,10.4,32.2,10.4s22-7.6,32.2-10.4
							C1609.4,507.6,1619,503.3,1609.4,489.1z"/>
						<path class="st17" d="M1789.8,397.9l-12.3-38c-2.6,88.5-16.9,209.6-59.8,275.6S1612.2,775.1,1567,775.1
							c-34.1,0-115.6-46.8-169.1-94.4c37,46.9,92.9,80.2,129.5,98.5c22.9,11.5,49.9,11.5,72.9,0c39.6-19.8,102.1-57.3,138.4-110.7
							C1794.7,586,1789.8,397.9,1789.8,397.9z"/>
					</g>
					<g>
						<path class="st25" d="M1801.5,580.5c-0.5-8.8-1.3-21.1-12-23.5c-10.8-2.4-16.8,5.5-22.3,13.2c-4.1,5.7-8.4,11-11.7,17.3
							c-7.4,14.1-13.3,28.8-18.5,43.9c-4.5,13.1-7.1,27.1-10.2,40.6c-3.4,14.3-6.5,28.6-9.5,42.9c-3.3,16,4.7,34.6,21.9,38.5
							c15.5,3.5,35.1-4.7,38.5-21.9c2.8-14,5.7-28,8.9-42c3.1-13.9,7.3-27.8,9.7-41.8c2.6-15.4,4.9-30.9,5.9-46.5
							C1802.6,594.1,1801.9,587.5,1801.5,580.5z"/>
						<path class="st25" d="M1862.8,715.8c-0.7-18.5-2.5-37.1-2-55.6c0-1-0.4-7.8-0.5-8.3c0-1.7,0.2-3.5,0.1-5.2
							c-0.3-5.4-0.6-8.8-1.2-14.3c-0.6-6-1.6-21.2-11.7-18.7c-4,1-7.2,4-9.6,7.3c-2.3,3.2-4.9,7.3-6.4,10.8c-4.4,9.9-8.2,16-11.5,26
							c-5.5,16.7-11.2,32.9-14.5,50.2c-3.3,17.2,5.9,33.9,24.2,36.4C1846.5,746.6,1863.5,733.5,1862.8,715.8z"/>
						<path class="st25" d="M1800.5,806.5c-2.8-23.2-11.4-45.1-30.4-59.8c-9-6.9-19.8-9.9-30.1-8.7c0.1-1.5,0.2-3,0.3-4.5
							c0.2-3.7,0.3-7.4,0.5-11.2c0-0.4,0-0.7,0.1-1c0.1-0.3,0.1-0.6,0.2-1c0.5-2.3,1-4.6,1.5-6.9c0.9-4.5,0.8-8.9,1.2-13.4
							c0.1-0.7,0.1-1,0-1.2c0.1-0.2,0.4-0.5,0.7-1.2c-0.5,0.9,1.3-2.9,1.6-3.6c1.7-3.4,3.5-6.7,5.6-9.9c2.2-3.4,5.4-7.3,6-12.2
							c1.2-9.2-5.1-17.3-15-15c-8.9,2-14.1,9.9-19.1,16.8c-4.1,5.7-7,12.1-11.1,17.8c-9.5,13.3-9.3,29.9-10.1,45.6
							c0,0.2,0,0.4,0,0.5c0-0.3-0.1-0.1-0.4,2c-0.1,0.5-0.1,0.8-0.1,1.1c0,0.1-0.1,0.1-0.1,0.2c-1.3,2.7-3,5.2-4.8,7.6
							c-4.5,6.3-8.7,12.2-10.9,19.8c-5.3,17.9,5.5,35.6,17.8,47.7c4.5,4.4,10.2,9.2,13.3,13.8c1.4,2,2.3,3.9,3,5.8
							c0.5,1.4,1,3,1.3,4.5c0.1,0.3,0.1,0.5,0.1,0.7c0,0.4,0,0.7,0,0.9c-2.5,9.7-9,16.2-15.1,23.9c-7.5,9.4-13.8,19.6-14.4,32
							c-0.6,14.3,7.1,27.5,13.4,39.8c7.2,14,11.4,28.4,10.9,44.3c-0.5,16.2-4.9,32.3-13.4,46.1c-0.2,0.4,0.3,0.8,0.6,0.5
							c14.1-15.4,21.6-34.7,22.3-55c0.2,0.5,0.4,1,0.6,1.5c6.8,18.8,10.9,38.2,9.4,58.3c-0.6,8.5-2.4,17.1-6,24.9
							c-1.8,4-4.4,7.5-6.3,11.3c-2.4,4.8-4.7,8.2-8.6,11.9c-0.7,0.6,0.2,1.7,1,1.3c4.2-2.3,8.3-4.8,12.5-7.2
							c4.3-2.4,7.6-7.1,10.6-11c6.2-8.2,11.2-17.4,14.7-27.1c8.5-23.4,6.5-49.6,2-73.7c-0.5-2.5-1-5-1.6-7.5
							c2.9-1.3,5.6-3.4,7.7-6.6c0.5-0.8,1-1.5,1.6-2.3c0,0,0,0,0,0c0.3-0.3,0.7-0.8,1-1c2.2-2.2,4.2-4.9,5.7-7.6
							c4.3-7.5,5.4-15.5,6.3-23.8C1782.9,878.3,1805.1,845.1,1800.5,806.5z"/>
						<path class="st24" d="M1747.9,410.5c-5.2-3.6-7.7-9.6-7.7-9.6l0,0c1.1-0.6,1.6-0.9,1.6-0.9c-37.8,10.3-85.1,4.4-109.2-15.4
							c20.4,22.3,50.2,30.5,72.1,27.5c1.6,2.7,8.3,6.2,8.3,6.2l-1.6-5.3c2.7,3.1,10.4,4.6,10.4,4.6l-1.6-4.6
							c3.1,3.3,15.1,3.2,15.1,3.2l-3.6-4.9c3.8,2.7,13.7,1.7,13.7,1.7l-5.2-5L1747.9,410.5z"/>
						<g>
							<path class="st25" d="M2006.2,916.2c4.2-9.1,6.9-19,5.7-29c-1-9-2.1-18-5-26.7c-4.7-14.2-11.3-28.1-19.6-40.6
								c-13.6-20.3-30.5-37.8-45.8-56.8c-5.2-7.2-10-14.6-14-22.6c-1.1-3.3-2.1-6.6-2.8-10c-0.2-3.4-0.2-6.8,0-10.1
								c2.7-13.6,7.7-26.6,12.6-39.5c6.9-18.3,12-35.9,14.2-55.4c4.4-40.4-18.9-74.6-45.6-102.2c-10.3-10.6-21.5-20.8-31-32.2
								c-2.9-4.1-5.4-8.4-7.6-13c-2.3-6.4-4.1-13-5.3-19.8c-0.2-1.2-0.4-2.5-0.6-3.7c0.8,6.3,0.7,5.5-0.4-2.4
								c-0.1-0.4-0.1-0.9-0.2-1.3c-0.6-5.6-0.8-11.4-2.5-16.8c-0.6-1.8-1.4-3.5-2.1-5.2c-0.1-1.3-0.4-2.6-0.5-3.5
								c-0.3-3.9-0.6-7.8-1-11.7c-0.8-8.2-1.9-16.4-3.6-24.4c-1.4-6.6-3.2-13-5.7-19.3c-2.8-7.3-7.3-13.2-11.3-18.6
								c-8-10.8-18.1-19-31.6-21.3c-0.9-0.2-2.1,0.8-1.4,1.8c4.3,5.8,7.5,12.1,9.9,18.9c1.1,3.3,2.5,6.4,3.3,9.8
								c0.3,1.2,0.7,3.5,0.7,4.2c0,0.7-0.2,3.4-0.1,4.9c0.2,4.2,0.8,5.8,1.1,11.3c0.2,4.1,0.2,8.2,0.1,12.4
								c-0.1,3.6-0.4,7.3-0.8,10.9c-0.1,0.6-0.1,1.2-0.2,1.8c0,0.2-0.1,0.4-0.1,0.6c-0.4,2.5-0.8,5-1.2,7.5c-0.4,2.5-0.9,5-1.4,7.5
								c-0.2,1.3-0.5,2.5-0.7,3.8c0,0.2-0.1,0.4-0.2,0.7c-0.7,1.1-1.8,2.9-2.1,3.4c-2.4,4.6-3.1,8.2-3.9,13.1
								c-1.9,11.7-3.6,23.5-3.7,35.4c-0.1,22.3,5.9,43,16.5,62.5c9,16.5,21.9,30.2,33.7,44.8c4.1,5.6,7.8,11.4,11,17.6
								c0.8,2.4,1.5,4.8,2,7.2c0.2,3.3,0.1,6.7-0.1,10c-5.5,27.6-21.1,52.2-26.2,80c-3.9,21.4-4.3,43.2,3,64
								c7.5,21.6,19,38.9,32.9,56.7c10,12.9,21.2,24.7,31.5,37.3c5.6,7.7,10.6,15.7,14.8,24.2c1.7,4.9,3,9.8,3.9,15
								c0.7,4.6,1.7,9.2,3.3,13.8c0.3,2.4,0.7,4.8,1,7.2c-0.1,0.8-0.1,1.7-0.2,2.5c-0.1,0.6-0.2,1.2-0.2,1.8
								c-0.1,0.4-0.2,0.8-0.2,1.2c-0.3,1-1.1,2.7-1.5,4c-0.2,0.3-0.3,0.6-0.5,0.8c-0.7,1.3-1.5,2.7-2.2,4.1
								c-4.1,7.6-7.8,15.3-10.7,23.4c-5.9,16.4-7.5,35.9,0.5,51.7c4.1,8.1,10.6,12.8,18.2,17.1c3.4,1.9,7,4,10.7,5
								c2.4,0.6,5,0.8,7.4,1.1c0.4,0,0.7,0.1,0.9,0.1c0.2,0.1,0.6,0.2,1,0.4c5.2,1.8,11.1,2.3,15.9,5.1c5.6,3.2,9.6,9.7,7.9,16.2
								c-0.6,2.2,2.4,4.3,4,2.4c8.4-9.8,4.1-23.6-2.6-33.2c-2.2-3.1-4.7-6.1-7.2-8.9c-1.1-1.2-2.3-2.3-3.4-3.5
								c-1.6-1.8-0.3,0.1-1.6-2c-0.8-1.3-1.3-2.8-2-4.1c-0.1-0.3-0.3-0.5-0.4-0.8c0.2-1.4,0.2-2.9,0.1-4.3c0-3.1,0.1-6.1,0-9.2
								c0-1.6,0-3.2,0-4.8c0.6-2.9,1.4-5.8,2.3-8.7c0.8-1.1,1.2-2.9,1.8-4c1.7-3.3,3.6-6.4,5.5-9.6c1-1.6,1.9-3.1,2.9-4.7
								c0.1-0.2,0.3-0.4,0.4-0.6c-0.3,0.3-0.5,0.5-0.7,0.4c0.1,0,0.4-0.3,0.9-0.9c1.7-2.6,1.2-1.5,0.4-0.4c2.1-2.2,6.1-6.5,6.6-7
								c1-0.9,1.8-1.9,2.7-2.9c-0.1,0.2,0.2-0.1,0.8-0.8c1-1.2,2-2.4,3-3.6C1997.7,934.3,2002.7,925.9,2006.2,916.2z"/>
							<path class="st25" d="M1976.2,956.6c0.2-0.2,0.4-0.5,0.6-0.8c-0.1,0.1-0.3,0.3-0.4,0.4
								C1976.3,956.3,1976.3,956.4,1976.2,956.6z"/>
						</g>
						<g>
							<path class="st26" d="M1937.2,811.5c-6-10.4-12.7-20.4-19.2-30.5c-3.2-5-6.3-10-9.3-15.1c-0.6-1-1.2-2.1-1.8-3.2
								c-0.4-0.7-0.9-1.5-1.2-2.1c0-0.1-0.1-0.2-0.1-0.3c-0.2-0.3-0.4-0.7-0.6-1c0.2,0.3,0.3,0.6,0.5,0.8c-0.8-1.6-1.6-3.3-2.4-4.9
								c-2.3-4.9-4.4-10-6.1-15.1c-0.3-0.8-0.5-1.7-0.7-2.5c-0.2-0.7-0.6-1.9-0.7-2.8c-0.2-0.6-0.3-1.2-0.5-1.7
								c0.2,0.6,0.3,1.1,0.5,1.5c-0.3-2-0.6-4-0.8-6.1c-0.3-3.1-0.3-6.1-0.3-9.2c0-0.1,0-0.1,0-0.2c0.2-1.9,0.4-3.8,0.6-5.7
								c1-7.6,2.7-15,4.3-22.5c3.5-16.2,6.5-32.2,6.3-48.8c-0.1-13.9-3.2-28.1-7.9-41.1c-8.9-25.2-24.3-47.6-38.4-70
								c-3.3-5.3-6.6-10.6-9.7-16c-1.2-2.1-2.4-4.3-3.6-6.4c0,0,0,0,0,0c-0.9-1.9-1.9-3.8-2.8-5.7c-2.4-5.3-4.6-10.6-6.4-16.1
								c-0.8-2.5-1.5-4.9-2.2-7.4c-0.3-1.8-0.6-3.6-0.9-5.4c-0.5-4-0.8-8-0.9-12c-0.1-2-0.1-4,0-6c0-0.6,0-1.3,0.1-1.9
								c0-0.2,0-0.5,0.1-0.8c0.8-8.8,1.9-17.5,2.7-26.2c1.6-17.1,3-34.8-0.3-51.7c-3.1-16.1-8.3-31.5-19.1-44.2
								c-5.9-6.9-12.3-13.2-20.6-17.3c-3.5-1.7-7.7-3.8-11.5-4.5c-5.7-1.1-11.1,0.4-15.9,3.5c4.5-2.9,0.3-0.6-1,0
								c-9.1,3.9-12.4,14.2-7,22.6c0,0,0.1,0.1,0.1,0.1c1.2,4.4,3.6,7.8,7.1,10.9c0.1,0.1,1.8,1.7,2.9,2.6c0.5,0.6,1.1,1.3,1.6,1.9
								c0.4,0.9,2.1,2.4,2.4,2.9c1,1.3,1.8,2.7,2.7,4.1c0,0,0.1,0.1,0.1,0.1c0,0,0,0,0,0c0.7,1.8,1.5,3.5,2.2,5.3
								c1.1,3,2.1,6.1,3,9.1c0.3,1.1,0.6,2.3,0.9,3.4c0.1,0.5,0.2,1.1,0.3,1.6c0.5,3.2,0.9,6.4,1,9.7c0.1,1.7,0.2,3.5,0.2,5.2
								c0,0.7,0,1.5,0,2.2c0,0,0,0.1,0,0.1c-1.6,18.3-4.9,36.3-5.9,54.7c-1.1,20.5,0.7,40.1,7.5,59.6c10.5,30,29.9,55.8,45.8,83
								c1.7,2.9,3.4,5.9,5,8.9c0.9,1.7,1.7,3.4,2.5,5.2c3.1,6.6,5.8,13.4,7.8,20.3c0.4,1.3,0.7,2.6,1.1,3.9c0,0,0,0.1,0,0.1
								c0.7,3.8,1.2,7.7,1.4,11.6c0.1,1.7,0.1,3.4,0.1,5.1c0,0,0,0.4,0,0.9c0,0.1,0,0.1,0,0.2c-0.6,4.4-1,8.8-1.7,13.2
								c-3,17.5-8.3,34.7-9.9,52.4c-1.7,19,0.3,37.1,6.7,55.1c10.3,28.6,29.9,52.5,44.8,78.7c0.3,0.5,0.6,1,0.9,1.6
								c0.3,0.5,0.5,1,0.8,1.5c1.6,3.2,3.1,6.6,4.4,9.9c1.1,2.9,2.2,5.8,3,8.7c0.3,0.9,0.5,1.9,0.8,2.9c0,0.2,0,0.3,0,0.4
								c0.5,3.2,0.8,6.5,0.9,9.8c0,0.7-0.1,1.4,0,2.1c0,0.1,0,0.2,0,0.2c0,0.2,0,0.4,0,0.6c0,0.2-0.1,0.4-0.1,0.7
								c-0.5,3.3-0.9,6.6-1.7,9.8c-0.1,0.3-0.2,0.7-0.2,1.2c-0.3,0.8-0.6,1.7-1,2.5c-2.5,6.1-5.5,12-8.7,17.8
								c-0.7,1.3-1.4,2.5-2.1,3.7c-0.6,1-3.6,5.7-1.2,2.2c2.5-3.7-0.9,1.4-1.4,2.1c-1,1.4-1.9,2.8-2.9,4.3
								c-4.7,6.9-9.9,13.6-13.9,21c-1.5,2.7-2.7,5.5-4,8.3c-0.7,1.5-1.4,3-2,4.6c-0.2,0.5-2.2,5.5-1.9,5.8c-0.1-0.1-0.1-0.2-0.1-0.3
								c-2.4,6.9-4.5,13.9-5.4,21.2c-0.2,1.6-0.4,3.2-0.5,4.8c-0.1,1.1-0.1,2.3-0.1,3.4c-0.1,0.1-0.2,1.2-0.3,1.5
								c-0.7,4.3-0.8,9-0.7,13.3c0.4,19.4,8.8,38,17.6,54.9c8.7,16.7,19.7,32,24.2,50.7c3.4,14.4,2.5,30.1-5.3,43.1
								c-3.7,6.1-9.1,10.9-15.7,13.8c-5.4,2.4-2.4,11,3.2,8.7c30.1-12.3,35.2-48.8,27.7-76.8c-4.9-18.4-12.7-35.8-19.3-53.7
								c-3.2-8.8-5.6-17.5-6.3-26.8c-0.6-7.6,0.5-14.5,2.3-21.7c0.4-0.6,0.8-1.2,1.1-1.9c0.2-0.3,1.1-1.9,1.4-2.3
								c1.3-1.9,2.6-3.7,4-5.4c1.4-1.8,3-3.5,4.5-5.2c1-1.1,4.2-3.3-0.1-0.5c2.5-1.7,4.7-4.5,6.9-6.7c1.7-1.7,3.4-3.4,5.2-5l1.1-1
								c-3.8,3.5-3.1,2.8,2.2-2c1-1,2-2.2,2.9-3.2c3.9-4.4,7.8-8.7,11.7-13.1c16.9-19.1,33.6-40.3,36.5-66.6
								C1962.2,862.8,1951.5,836.3,1937.2,811.5z M1899.9,869.4c0.3,0.3,0.4,1.5,0.4,2.3C1900,870.4,1899.7,869.3,1899.9,869.4z"/>
							<path class="st26" d="M1895.6,734.7c0.3,0.9,0.5,1.9,0.7,2.8c0.3,1,0.4,0.8-0.8-3C1895.6,734.6,1895.6,734.7,1895.6,734.7
								C1895.6,734.7,1895.6,734.7,1895.6,734.7z"/>
							<path class="st26" d="M1860.1,968.4c0,0,0-0.1,0-0.1C1861.4,964.7,1860.1,967.4,1860.1,968.4z"/>
							<path class="st26" d="M1907,762.7c0.8,1.3,1.2,1.8-1.5-2.6c0,0.1,0.1,0.1,0.1,0.2C1906.1,761.1,1906.6,761.9,1907,762.7z"/>
						</g>
						<g>
							<path class="st27" d="M1807.8,477.8c0.7,1,1,1.3-1.3-2.4c0.1,0.2,0.2,0.4,0.3,0.6C1807.1,476.7,1807.4,477.3,1807.8,477.8z"
								/>
							<path class="st27" d="M1796,450.3c0.6,1.3,1,1.2-0.7-2.9c0,0.1,0,0.2,0,0.2C1795.6,448.5,1795.8,449.4,1796,450.3z"/>
							<path class="st27" d="M1920.2,825.3c-4.7-24.3-14.5-46.3-28.8-67c-11.5-16.7-25.2-32.2-35.6-49.5c-2.8-5.5-5.1-11.1-6.8-16.9
								c-0.7-4.4-1-8.7-0.9-13.1c1.5-12.4,5.1-24.3,7.9-36.5c3.5-15.1,5.5-31.6,5-47c-0.8-28-14.2-54.5-28.7-78.3
								c-6.4-10.4-13.2-20.6-19.7-31c-1.5-2.4-2.9-4.7-4.3-7.1c-0.2-0.3-0.3-0.6-0.5-0.9c-0.2-0.4-0.5-0.8-0.7-1.2
								c-0.1-0.2-0.2-0.3-0.3-0.5c-0.3-0.5-0.6-1.1-0.9-1.6c0.2,0.4,0.4,0.7,0.6,1c-2.8-5.4-5.4-10.8-7.6-16.5
								c-0.9-2.5-1.8-5-2.6-7.6c-0.1-0.3-0.2-0.7-0.3-1.1c-0.2-0.5-0.4-1.1-0.5-1.7c-0.1-0.3-0.1-0.6-0.2-1
								c-0.1-0.3-0.2-0.6-0.3-0.8c0.1,0.2,0.2,0.4,0.3,0.6c-0.5-2.6-0.8-5.3-1-8c-0.3-3.6-1.3-8.8-0.2-12.2l-0.2,3.3
								c0.1-1.4,0.2-2.7,0.4-4.1c0.1-1.4,0.3-2.7,0.4-4.1c0.4-3.7,1-7.5,1.5-11.2c1.4-9.5,2.2-19.1,2.6-28.7
								c0.7-14.9-0.9-31.6-7.8-45.2c-4.3-8.4-9.5-15.6-16.5-22.3c-7-6.7-15.3-10.3-25-12.7c-7.9-2-16.9,2.6-21.2,8.6
								c-4.1,5.8-5.3,15.8,0.1,21.4c3.1,3.2,5.9,6.9,8.4,10.6c0.7,1.1,1.6,4.4,0.9,1.3c-0.7-3.4,0.2,0.7,0.6,1.5
								c1,2.3,1.4,5,2.5,7.3c-0.2-1.1-0.5-2.3-0.7-3.4c0.5,2.2,1,4.3,1.5,6.5c0.1,0.4,0.6,2,0.8,2.7c-0.1-0.3-0.2-0.7-0.4-1.4
								c-1.3-4.3,0,0.6,0.1,1.4c0.2,1,0.3,2.1,0.4,3.2c0.2,2.1,0.4,4.2,0.5,6.4c0,1.3,0.1,2.7,0,4c0,1,0,6.9,0,2.1
								c0-5-0.2,1.1-0.3,1.6c-0.2,1.4-0.3,2.7-0.5,4.1c-0.5,3-1,6.1-1.6,9.1c-1.2,6.4-2.3,12.8-3.3,19.3c-2.1,14-3.7,28.6-1.7,42.7
								c3.3,24,13.8,45.1,26.1,66c5.4,9.1,11.1,18,16.6,27.1c1.3,2.1,2.6,4.3,3.8,6.4c0.4,0.7,0.8,1.5,1.3,2.3
								c2.4,4.5,4.6,9,6.6,13.6c1.1,2.4,2,4.9,2.9,7.4c0.4,1,0.7,2,1,3c0.5,1.5,0.7,2.2,0.8,2.5c0.6,4.5,0.9,11.4,0.9,12.4
								c0,0.5,0.1,1.1,0.1,1.6c-0.1,0.5-0.1,1-0.2,1.6c-0.4,3-0.9,6.1-1.5,9.1c-1.4,6.7-3.6,13.3-5.9,19.8c1-2.7,1.9-5.4,2.9-8.1
								c-12.9,35.4-22.3,71.5-9.1,107.9c10.2,28.1,30.9,51.4,46.2,77.1c4.5,8.8,8.1,18,10.6,27.5c2.2,11.1,3.3,22.2,3,33.5
								c-1,9.5-3,18.9-5.9,28.2c-5.9,14.2-14.2,27-22.9,39.9c-4.6,6.8-9.1,13.7-13.1,20.8c-5.1,9.2-10.3,19.8-12.3,29.9
								c-2.4,11.9-2.2,26.8,2.2,38.2c3.7,9.6,9.7,18.5,16.9,26.1c5.3,5.6,10.2,10.7,17.1,14.6c0.9,0.5,1.8,1,2.8,1.5
								c0.1,0,0.2,0.1,0.4,0.2c1,0.8,3.2,2.5,3.1,2.5c1.5,1.4,6.7,7.6,8.6,9.5c2,2.1,5.4,5.7,8.6,7.8c0.2,0.1,0.4,0.2,0.5,0.3
								c0.4,0.8,0.8,1.6,1.2,2.5c0.8,1.8,1.6,3.7,2.2,5.5c1.2,3.5,2,7.1,2.3,10.7c0.6,8-2,15.5-7.8,21.4c-2.1,2.1,1,4.9,3.5,3.5
								c17.4-9.7,21.4-30.2,19.4-47.5c-0.5-3.9,0.8-8.5,0.2-12.8c-0.4-3.5-1.4-7.6-2.6-11c-0.4-1.1-0.9-2.3-1.4-3.4
								c0,0-0.7-1.3-1.1-2.2c0.6,0.9-1.6-5.2-1.8-6.5c0-0.1,0-0.2,0-0.3c0.1,0,0.2-0.2,0.3-0.5c0.8-2.1,0.2-5.4,0-7.6
								c-0.6-4.7-1.1-9.2-1.2-13.9c0.8-6.4,2.4-12.9,4.4-19c0.4-1,0.7-1.9,1.1-2.9c6.5-16.6,17.4-31.3,27.2-46.3
								c12.1-18.8,21.1-39.2,25.7-60.7C1923.5,869.3,1924.3,846.5,1920.2,825.3z M1793.6,575.4c0.4,0,0.7,1.4,0.9,3.5
								C1794.2,577.6,1793.6,575.4,1793.6,575.4z"/>
						</g>
						<g>
							<path class="st28" d="M1774.6,574.5c0.2,1.3,0.5,1.9,0.7,1.9c-0.2-0.6-0.5-1.2-0.6-1.7
								C1774.7,574.6,1774.6,574.6,1774.6,574.5z"/>
							<path class="st28" d="M1780.9,978.1C1780.9,978,1780.9,978,1780.9,978.1C1780.9,978,1780.9,978,1780.9,978.1
								C1780.9,978,1780.9,978,1780.9,978.1z"/>
							<path class="st28" d="M1795.9,744.2C1796.8,746.2,1797.9,748,1795.9,744.2L1795.9,744.2z"/>
							<path class="st28" d="M1833.2,797c-7.3-13.5-18-25.1-27.6-37c-0.1-0.1-0.2-0.3-0.3-0.4c-0.9-1.2-1.8-2.4-2.6-3.7
								c-2.1-3.1-4.1-6.2-5.8-9.5c-0.7-1.3-1.2-2.7-1.9-4c0.4,0.7,0.7,1.4,1,1.9c-0.2-0.4-0.4-0.9-0.5-1.3c-0.5-1.7-1-3.3-1.4-5
								c0-0.1,0-0.3-0.1-0.4c-0.1-2.8-0.3-5.6-0.1-8.4c0-0.2,0-0.6,0.1-1c0.2-1,0.4-2.2,0.5-2.7c1.2-5.6,3.1-11,5.2-16.4
								c0.3-0.7,0.6-1.4,0.8-1.9c0.7-1.6,1.5-3.2,2.3-4.8c1.6-3.2,3.2-6.5,4.8-9.7c3.3-6.5,6.7-12.9,9.9-19.5
								c7.4-15.2,13.9-30.6,16.2-47.4c2.2-16.6,0.4-33.6-5.7-49.3c-5.8-14.9-14.3-28.8-22.5-42.4c-7.6-12.7-15.3-25.2-21.7-38.6
								c-0.1-0.2-0.2-0.4-0.3-0.5c-0.1-0.2-0.1-0.3-0.2-0.5c-0.6-1.5-1.1-3-1.7-4.4c-1.3-3.7-2.4-7.5-3.3-11.4
								c-0.3-1.5-0.6-3.1-0.9-4.6c0.3,1.4-0.3-3.1-0.4-4.4c-0.3-4.7-0.3-9.5-0.1-14.2c0.2-4.4,0.6-8.9,1-13.3
								c0.1-1.2,0.3-2.4,0.4-3.6c0.4-2.6,0.8-5.2,1.2-7.8c1.7-10.6,3.4-21.1,4.8-31.7c2.2-16.6,2.2-32.4-0.9-48.9
								c-1.6-8.5-4.4-16.4-7.8-24.3c-3.5-8-8.6-17.5-16-22.2c-6.9-4.4-15-6.2-23.1-6c-7.1,0.2-12.7,7-10.7,14.1
								c2,6.9,2.4,14.5,6,20.8c1.4,2.5,2.8,5,4.1,7.5c0.2,0.5,0.4,1,0.6,1.5c0.6,1.7,1.1,3.4,1.6,5.1c0.9,3.2,1.5,6.5,2.1,9.8
								c0,0,0,0.1,0,0.1c0,0.1,0,0.2,0,0.3c0.2,2.1,0.4,4.2,0.5,6.3c0.3,6.8,0.3,13.7-0.2,20.6c-0.2,3.3-0.6,6.7-1,10
								c-0.2,1.2-0.3,2.3-0.5,3.5c-0.4,2.4-0.8,4.8-1.1,7.2c-1.5,9.2-3.2,18.4-4.4,27.6c-2.8,20.5-4,40.9,0.9,61.2
								c7,29.3,25.5,53.6,39.4,79.7c0.3,0.5,0.5,1.1,0.8,1.6c0-0.3-0.1-0.5-0.1-0.8c0,0.3,0.1,0.7,0.2,1c0.1,0.1,0.1,0.2,0.2,0.3
								c0.5,0.9,0.6,1.4,0.4,1.4c0.2,0.6,0.5,1.2,0.6,1.7c1,3.4,2.2,6.8,3.3,10.2c0.9,2.9,1.7,5.9,2.3,8.9c0.1,0.3,0.2,1.1,0.3,1.9
								c0.1,1.1,0.3,2.8,0.3,3.4c0.2,3.2,0.1,6.4-0.2,9.6c-0.4,1.7-0.7,3.5-1.1,5.2c-0.8,3.1-1.6,6.3-2.6,9.4
								c-0.5,1.4-1,2.9-1.5,4.3c-0.2,0.6-1.1,2.8-1.4,3.7c-0.2,0.5-0.4,0.9-0.5,1.1c-0.6,1.4-1.3,2.8-2,4.2c-1.6,3.3-3.3,6.5-5,9.7
								c-3.3,6.2-6.7,12.3-10,18.5c-7,13.2-13.9,27.1-17.6,41.6c-4,16.1-4.5,33.8,0.9,49.7c5.7,16.7,15.5,30.1,26.3,43.7
								c2,2.6,4.1,5.1,6.1,7.7c0.3,0.5,2.3,3.1,2.9,3.9c1.7,2.4,3.4,4.9,4.9,7.4c0.9,1.5,1.7,3,2.5,4.5c0.1,0.2,0.3,0.6,0.5,1.1
								c0.3,1,0.8,2.2,1,2.8c0.4,1.3,0.7,2.5,1,3.8c0.1,1.4,0.1,2.7,0.1,4.1c0,0.2,0,0.5,0,0.8c-0.1,0.5-0.2,1-0.3,1.5
								c-0.6,2.5-1.4,4.8-2.2,7.2c-0.6,1.2-1.2,2.3-1.8,3.5c-1.6,2.9-3.3,5.7-5.1,8.5c-1.7,2.6-3.5,5.2-5.4,7.7
								c-0.7,1-1.4,1.9-2.1,2.8c-0.2,0.2-0.3,0.4-0.5,0.6c-9.5,12-19.4,23.8-27.2,37c-9.6,16.1-15.8,34.3-16.6,53.1
								c-0.3,6.7,2,11.9,3.6,18.1c1.2,4.5,1.6,9,3.2,13.5c2.9,8.3,5.9,16.4,8.4,24.8c2.8,9.4,7,18.5,10.1,27.1
								c2.6,7,2.9,15.2,2.4,22.5c-1.1,15-7.4,29.7-20.4,38c-6.3,4-13.4,5.7-20.8,5.3c-1.6-0.1-2,2.5-0.4,2.8
								c13.1,2.2,25.9-2.4,36.2-10.7c5.6-4.5,11.8-9.7,15.7-15.9c4.4-7,7.2-14.9,9.2-22.9c1.1-4.4,2.1-8.8,2.8-13.4
								c0.8-5.2,2.2-10.1,2.8-15.3c1.1-8.4,1.6-18.7,1.2-28c-0.2-4.4-0.3-8.6,0-13c0.2-2,0.4-4,0.6-6c0-0.2,0.1-0.5,0.1-0.9
								c0.2-1.3,0.8-6.7,0.8-7.2c0.1-0.7,0.1-1.5,0.1-2.2c-0.1,0.2-0.1,0.3-0.2,0.3c0,0,0.1-0.1,0.2-0.3c0-0.3,0-0.5,0-0.8
								c0.1-3.7,0.3-0.3,0,0.8c0.5-1.1,1.7-4.7,1.8-5.1c1.3-3.8,1.8-7.9,2-11.9c0.2-1.2,0.5-2.6,0.5-2.7c0.7-3.4,1.8-6.6,2.9-9.9
								c0.7-1.5,1.4-2.9,2.2-4.3c3.3-6.1,7.2-11.9,11.2-17.5c8-11.1,16.7-21.8,24.1-33.2c7.9-12.1,14.9-26,17-40.5
								C1845.7,833.1,1842.7,814.7,1833.2,797z M1786.2,842.5c-0.2,0.2,0-1.3,0.3-2.7C1786.5,840.9,1786.5,842.3,1786.2,842.5z"/>
						</g>
						<path class="st28" d="M1769.8,677.1c6-18,6.3-36.1,0.9-54.3c-5.7-19.4-15.7-37.3-21.8-56.6c-7-21.8-10-44.4-10-67.2
							c0-23.5,4.4-46.8,9.5-69.6c0.3-1.5-1.8-2.5-2.5-1.1c-17.7,35.2-19.5,77.6-12.3,115.8c3.8,19.9,10.9,38.3,18.8,56.8
							c7.8,18.5,14.9,37.8,12.1,58.2c-4.9,35-30.6,63.3-34.2,98.7c-2.1,20.1,3.3,40,9.7,58.9c6.6,19.5,12.4,39.3,14.8,59.8
							c5.2,44.9-3.9,90.2-24.1,130.5c-0.4,0.8,0.8,1.6,1.3,0.7c18.9-32.9,28-70.8,27.8-108.7c-0.1-19.4-2.8-38.7-7.9-57.5
							c-5.5-20.2-12.5-40.2-14.4-61.2c-1.8-19.6,3-37.6,11-55.3C1755.4,709.1,1764.2,693.8,1769.8,677.1z"/>
						<path class="st29" d="M1773.7,717.6c-6.4-9.4-12.9-19.1-16.7-29.9c-4.7-13.4-5.2-27.8-2.5-41.7c5.4-28.2,21.1-52.4,32.5-78.2
							c10.9-24.7,16.9-50.8,16.3-77.8c-0.7-29.3-8.5-58.7-23.3-84c-7.8-13.3-17.3-25.6-23.9-39.5c-6.5-13.6-11.5-31.4-6.4-46.2
							c0.7-2.1-2.6-3.5-3.6-1.5c-5.6,11.7-7.4,23.9-4.6,36.6c2.9,12.9,9.3,24.6,16,35.8c7,11.7,14.5,23.1,20,35.6
							c5.4,12.2,9.1,25.1,11.4,38.2c4.5,26.2,2.5,53.6-5.8,78.8c-8.9,26.8-24.8,50.7-34.4,77.3c-9,25.1-11.8,52.5,0.5,77
							c10.6,21,29,36.9,38.9,58.2c22.2,47.7-23,92.7-31.7,137.9c-11.9,62.2,40.4,126.8,9.2,186.9c-1.4,2.7,2.6,5,4,2.4
							c28.1-51.8-6.9-108.6-8.9-161.9c-1-27.7,9.4-51.5,21-76c9.8-20.7,20.3-42.7,19.4-66.2C1800.4,755.6,1786.5,736.5,1773.7,717.6
							z"/>
						<path class="st29" d="M1802.7,1034.9c-33.9-34.4-24.1-87.7-19.6-130.7c2.7-25.6,2.8-50.6-5.4-75.3
							c-7.4-22.6-19.5-44.4-21.2-68.5c-3.3-45,32.7-80.1,40.7-122.7c9.3-49.2-18-94.6-30.5-140.6c-7.7-28.3-11.2-57.5-10.8-86.9
							c0.2-14.2,1.2-28.5,2.7-42.6c1.5-14.7,4.4-29.3,5.2-44c0.1-1.5-2.3-2.3-3-0.8c-10.1,23.1-13.3,50.3-14.6,75.3
							c-1.4,26.1,0.1,52.4,4.9,78.2c4.8,25.6,14.5,49.5,23.5,73.8c8.7,23.2,16.9,47.5,16.1,72.6c-1.5,45.4-37.5,80.5-40.8,125.5
							c-1.8,24.1,8.1,46.3,16.7,68.2c4.4,11.2,8.5,22.6,10.5,34.4c2.4,13.8,2.2,27.9,1.1,41.9c-3.6,47.1-18.5,107.8,22.9,143.7
							C1802.3,1037.2,1803.7,1035.9,1802.7,1034.9z"/>
						<path class="st25" d="M1994.8,883.1c-4.1-9.7-9.7-18.7-17-26.3c-7.4-7.7-16.5-12.7-25.4-18.4c-9.1-5.7-19.8-13.6-18.7-25.7
							c1-10.7,10.6-18.5,17.4-25.9c6.8-7.4,12.4-15.5,12.9-25.9c0.6-12.5-5.3-24.7-12-34.8c-7.2-10.9-16-21.1-20.6-33.5
							c-4-10.8-3.6-22.1-0.4-33.1c6.1-20.6,19.7-37.7,28.1-57.2c8.7-20.3,8.8-41.6-4.1-60.2c-16.3-23.6-43.2-34.9-66.6-49.9
							c-22.9-14.7-48.2-43.3-34.3-72.4c0.6-1.2-1-2.1-1.8-1c-12.7,19.4-5.1,44.7,9.1,61.1c17.2,19.7,42.3,29.3,63.3,44.1
							c19.9,14,35.9,34.2,31.7,59.8c-3.4,21.3-15.7,39.9-24.4,59.3c-8.5,19-11.6,38.6-1.6,57.8c11.4,21.8,41.9,47.6,25.1,74.4
							c-9.1,14.5-32.1,27-24.4,47.3c3.3,8.8,11.5,14.5,19.2,19.4c9.3,5.9,18.7,11.2,26.2,19.5c18.2,20.1,24.4,49,22.1,75.4
							c-1.4,16.3-5.8,32.2-11.4,47.6c-5.7,15.6-14.2,30.3-18.8,46.2c-0.5,1.6,1.8,2.5,2.7,1.1c7.8-11.7,13-25.4,18.1-38.6
							c5.3-13.6,9.7-27.6,12.1-42C2005.2,928.3,2003.9,904.6,1994.8,883.1z"/>
						<path class="st25" d="M2042.7,904.9c10.5-21.6,18.4-44.5,15.9-68.8c-2.1-20.1-10.9-40-28.9-50.7c-19-11.3-44.6-8.5-61.9-22.8
							c-19.8-16.3-13.1-46.2-4.2-66.5c10.3-23.5,24.9-47.5,19.6-74.3c-4.9-24.6-24.1-43.2-43.4-57.7c-13.1-9.8-27-18.5-39.4-29.3
							c-10.8-9.4-20.1-20.4-28-32.4c-16.2-24.4-25.8-53.6-27.1-82.9c0-0.9-1.4-0.9-1.5,0c-0.8,25.1,4.4,49.8,15.4,72.4
							c11.4,23.6,28.6,42.7,49.4,58.4c21.8,16.4,46.9,30.6,60.6,55.2c6.9,12.3,9.3,25.9,6.5,39.8c-2.8,14.1-9.5,27-15.6,39.9
							c-9.5,20.3-18.5,45.1-9.3,67.2c9.1,21.8,32,26.3,52.6,31.4c11.1,2.8,22.1,6.4,30.5,14.6c7.8,7.6,12.5,17.7,14.9,28.3
							c5.6,24.7-1.6,49-12.4,71.2c-13,26.7-30.5,51.9-36.7,81.5c-5.1,24.4-2.3,51.7,16.2,69.9c1.7,1.6,3.8-0.7,2.5-2.5
							c-15.3-19.6-15.3-46-9.6-69.1C2015.6,951.6,2031,928.8,2042.7,904.9z"/>
						<path class="st25" d="M1982.9,817.8c-7.5-4.7-15.9-8.2-22.4-14.4c-7.4-7.1-9.3-16.8-7.5-26.7c3.3-18.5,12.8-34.9,12.8-54.2
							c0.2-39.3-25.7-71.7-50.3-99.7c-29.8-33.9-66.4-75.5-54.1-124.5c0-0.2-0.2-0.3-0.3-0.1c-9.7,36.6,9.3,72.3,31.3,100.3
							c25.2,32.1,57.5,61.3,67,102.7c2.3,10,3.1,20.5,1.5,30.7c-1.5,9.4-5.2,18.1-8.4,26.9c-5.6,15.2-9.8,32.8,1.8,46.3
							c10.9,12.7,28.4,16.6,39.3,29.5c10.5,12.5,15.5,29,16.1,45.1c1.9,43.1-27.2,79.5-51.8,112c-1.6,2.2,2,5,3.8,2.9
							c23.8-28,48.6-58.7,53.7-96.5C2019.5,868,2010,834.6,1982.9,817.8z"/>
					</g>
					<g>
						<path class="st25" d="M1332.6,580.5c0.5-8.8,1.3-21.1,12-23.5c10.8-2.4,16.8,5.5,22.3,13.2c4.1,5.7,8.4,11,11.7,17.3
							c7.4,14.1,13.3,28.8,18.5,43.9c4.5,13.1,7.1,27.1,10.2,40.6c3.4,14.3,6.5,28.6,9.5,42.9c3.3,16-4.7,34.6-21.9,38.5
							c-15.5,3.5-35.1-4.7-38.5-21.9c-2.8-14-5.7-28-8.9-42c-3.1-13.9-7.3-27.8-9.7-41.8c-2.6-15.4-4.9-30.9-5.9-46.5
							C1331.5,594.1,1332.2,587.5,1332.6,580.5z"/>
						<path class="st25" d="M1271.2,715.8c0.7-18.5,2.5-37.1,2-55.6c0-1,0.4-7.8,0.5-8.3c0-1.7-0.2-3.5-0.1-5.2
							c0.3-5.4,0.6-8.8,1.2-14.3c0.6-6,1.6-21.2,11.7-18.7c4,1,7.2,4,9.6,7.3c2.3,3.2,4.9,7.3,6.4,10.8c4.4,9.9,8.2,16,11.5,26
							c5.5,16.7,11.2,32.9,14.5,50.2c3.3,17.2-5.9,33.9-24.2,36.4C1287.6,746.6,1270.5,733.5,1271.2,715.8z"/>
						<path class="st25" d="M1333.6,806.5c2.8-23.2,11.4-45.1,30.4-59.8c9-6.9,19.8-9.9,30.1-8.7c-0.1-1.5-0.2-3-0.3-4.5
							c-0.2-3.7-0.3-7.4-0.5-11.2c0-0.4,0-0.7-0.1-1c-0.1-0.3-0.1-0.6-0.2-1c-0.5-2.3-1-4.6-1.5-6.9c-0.9-4.5-0.8-8.9-1.2-13.4
							c-0.1-0.7-0.1-1,0-1.2c-0.1-0.2-0.4-0.5-0.7-1.2c0.5,0.9-1.3-2.9-1.6-3.6c-1.7-3.4-3.5-6.7-5.6-9.9c-2.2-3.4-5.4-7.3-6-12.2
							c-1.2-9.2,5.1-17.3,15-15c8.9,2,14.1,9.9,19.1,16.8c4.1,5.7,7,12.1,11.1,17.8c9.5,13.3,9.3,29.9,10.1,45.6c0,0.2,0,0.4,0,0.5
							c0-0.3,0.1-0.1,0.4,2c0.1,0.5,0.1,0.8,0.1,1.1c0,0.1,0.1,0.1,0.1,0.2c1.3,2.7,3,5.2,4.8,7.6c4.5,6.3,8.7,12.2,10.9,19.8
							c5.3,17.9-5.5,35.6-17.8,47.7c-4.5,4.4-10.2,9.2-13.3,13.8c-1.4,2-2.3,3.9-3,5.8c-0.5,1.4-1,3-1.3,4.5
							c-0.1,0.3-0.1,0.5-0.1,0.7c0,0.4,0,0.7,0,0.9c2.5,9.7,9,16.2,15.1,23.9c7.5,9.4,13.8,19.6,14.4,32
							c0.6,14.3-7.1,27.5-13.4,39.8c-7.2,14-11.4,28.4-10.9,44.3c0.5,16.2,4.9,32.3,13.4,46.1c0.2,0.4-0.3,0.8-0.6,0.5
							c-14.1-15.4-21.6-34.7-22.3-55c-0.2,0.5-0.4,1-0.6,1.5c-6.8,18.8-10.9,38.2-9.4,58.3c0.6,8.5,2.4,17.1,6,24.9
							c1.8,4,4.4,7.5,6.3,11.3c2.4,4.8,4.7,8.2,8.6,11.9c0.7,0.6-0.2,1.7-1,1.3c-4.2-2.3-8.3-4.8-12.5-7.2c-4.3-2.4-7.6-7.1-10.6-11
							c-6.2-8.2-11.2-17.4-14.7-27.1c-8.5-23.4-6.5-49.6-2-73.7c0.5-2.5,1-5,1.6-7.5c-2.9-1.3-5.6-3.4-7.7-6.6
							c-0.5-0.8-1-1.5-1.6-2.3c0,0,0,0,0,0c-0.3-0.3-0.7-0.8-1-1c-2.2-2.2-4.2-4.9-5.7-7.6c-4.3-7.5-5.4-15.5-6.3-23.8
							C1351.2,878.3,1328.9,845.1,1333.6,806.5z"/>
						<path class="st24" d="M1386.1,410.5c5.2-3.6,7.7-9.6,7.7-9.6l0,0c-1.1-0.6-1.6-0.9-1.6-0.9c37.8,10.3,85.1,4.4,109.2-15.4
							c-20.4,22.3-50.2,30.5-72.1,27.5c-1.6,2.7-8.3,6.2-8.3,6.2l1.6-5.3c-2.7,3.1-10.4,4.6-10.4,4.6l1.6-4.6
							c-3.1,3.3-15.1,3.2-15.1,3.2l3.6-4.9c-3.8,2.7-13.7,1.7-13.7,1.7l5.2-5L1386.1,410.5z"/>
						<g>
							<path class="st25" d="M1127.8,916.2c-4.2-9.1-6.9-19-5.7-29c1-9,2.1-18,5-26.7c4.7-14.2,11.3-28.1,19.6-40.6
								c13.6-20.3,30.5-37.8,45.8-56.8c5.2-7.2,10-14.6,14-22.6c1.1-3.3,2.1-6.6,2.8-10c0.2-3.4,0.2-6.8,0-10.1
								c-2.7-13.6-7.7-26.6-12.6-39.5c-6.9-18.3-12-35.9-14.2-55.4c-4.4-40.4,18.9-74.6,45.6-102.2c10.3-10.6,21.5-20.8,31-32.2
								c2.9-4.1,5.4-8.4,7.6-13c2.3-6.4,4.1-13,5.3-19.8c0.2-1.2,0.4-2.5,0.6-3.7c-0.8,6.3-0.7,5.5,0.4-2.4c0.1-0.4,0.1-0.9,0.2-1.3
								c0.6-5.6,0.8-11.4,2.5-16.8c0.6-1.8,1.4-3.5,2.1-5.2c0.1-1.3,0.4-2.6,0.5-3.5c0.3-3.9,0.6-7.8,1-11.7
								c0.8-8.2,1.9-16.4,3.6-24.4c1.4-6.6,3.2-13,5.7-19.3c2.8-7.3,7.3-13.2,11.3-18.6c8-10.8,18.1-19,31.6-21.3
								c0.9-0.2,2.1,0.8,1.4,1.8c-4.3,5.8-7.5,12.1-9.9,18.9c-1.1,3.3-2.5,6.4-3.3,9.8c-0.3,1.2-0.7,3.5-0.7,4.2
								c0,0.7,0.2,3.4,0.1,4.9c-0.2,4.2-0.8,5.8-1.1,11.3c-0.2,4.1-0.2,8.2-0.1,12.4c0.1,3.6,0.4,7.3,0.8,10.9
								c0.1,0.6,0.1,1.2,0.2,1.8c0,0.2,0.1,0.4,0.1,0.6c0.4,2.5,0.8,5,1.2,7.5c0.4,2.5,0.9,5,1.4,7.5c0.2,1.3,0.5,2.5,0.7,3.8
								c0,0.2,0.1,0.4,0.2,0.7c0.7,1.1,1.8,2.9,2.1,3.4c2.4,4.6,3.1,8.2,3.9,13.1c1.9,11.7,3.6,23.5,3.7,35.4
								c0.1,22.3-5.9,43-16.5,62.5c-9,16.5-21.9,30.2-33.7,44.8c-4.1,5.6-7.8,11.4-11,17.6c-0.8,2.4-1.5,4.8-2,7.2
								c-0.2,3.3-0.1,6.7,0.1,10c5.5,27.6,21.1,52.2,26.2,80c3.9,21.4,4.3,43.2-3,64c-7.5,21.6-19,38.9-32.9,56.7
								c-10,12.9-21.2,24.7-31.5,37.3c-5.6,7.7-10.6,15.7-14.8,24.2c-1.7,4.9-3,9.8-3.9,15c-0.7,4.6-1.7,9.2-3.3,13.8
								c-0.3,2.4-0.7,4.8-1,7.2c0.1,0.8,0.1,1.7,0.2,2.5c0.1,0.6,0.2,1.2,0.2,1.8c0.1,0.4,0.2,0.8,0.2,1.2c0.3,1,1.1,2.7,1.5,4
								c0.2,0.3,0.3,0.6,0.5,0.8c0.7,1.3,1.5,2.7,2.2,4.1c4.1,7.6,7.8,15.3,10.7,23.4c5.9,16.4,7.5,35.9-0.5,51.7
								c-4.1,8.1-10.6,12.8-18.2,17.1c-3.4,1.9-7,4-10.7,5c-2.4,0.6-5,0.8-7.4,1.1c-0.4,0-0.7,0.1-0.9,0.1c-0.2,0.1-0.6,0.2-1,0.4
								c-5.2,1.8-11.1,2.3-15.9,5.1c-5.6,3.2-9.6,9.7-7.9,16.2c0.6,2.2-2.4,4.3-4,2.4c-8.4-9.8-4.1-23.6,2.6-33.2
								c2.2-3.1,4.7-6.1,7.2-8.9c1.1-1.2,2.3-2.3,3.4-3.5c1.6-1.8,0.3,0.1,1.6-2c0.8-1.3,1.3-2.8,2-4.1c0.1-0.3,0.3-0.5,0.4-0.8
								c-0.2-1.4-0.2-2.9-0.1-4.3c0-3.1-0.1-6.1,0-9.2c0-1.6,0-3.2,0-4.8c-0.6-2.9-1.4-5.8-2.3-8.7c-0.8-1.1-1.2-2.9-1.8-4
								c-1.7-3.3-3.6-6.4-5.5-9.6c-1-1.6-1.9-3.1-2.9-4.7c-0.1-0.2-0.3-0.4-0.4-0.6c0.3,0.3,0.5,0.5,0.7,0.4c-0.1,0-0.4-0.3-0.9-0.9
								c-1.7-2.6-1.2-1.5-0.4-0.4c-2.1-2.2-6.1-6.5-6.6-7c-1-0.9-1.8-1.9-2.7-2.9c0.1,0.2-0.2-0.1-0.8-0.8c-1-1.2-2-2.4-3-3.6
								C1136.3,934.3,1131.4,925.9,1127.8,916.2z"/>
							<path class="st25" d="M1157.9,956.6c-0.2-0.2-0.4-0.5-0.6-0.8c0.1,0.1,0.3,0.3,0.4,0.4
								C1157.7,956.3,1157.8,956.4,1157.9,956.6z"/>
						</g>
						<g>
							<path class="st26" d="M1175,892c2.9,26.4,19.5,47.6,36.5,66.6c3.9,4.4,7.8,8.7,11.7,13.1c1,1.1,1.9,2.2,2.9,3.2
								c5.2,4.8,6,5.5,2.2,2l1.1,1c1.7,1.7,3.5,3.3,5.2,5c2.2,2.2,4.4,5,6.9,6.7c-4.3-2.9-1.1-0.6-0.1,0.5c1.6,1.7,3.1,3.4,4.5,5.2
								c1.4,1.7,2.8,3.5,4,5.4c0.2,0.4,1.2,2.1,1.4,2.3c0.4,0.6,0.8,1.2,1.1,1.9c1.9,7.2,2.9,14.1,2.3,21.7
								c-0.7,9.3-3.1,18-6.3,26.8c-6.5,17.9-14.4,35.3-19.3,53.7c-7.4,27.9-2.4,64.4,27.7,76.8c5.6,2.3,8.7-6.3,3.2-8.7
								c-6.6-2.9-12-7.7-15.7-13.8c-7.8-12.9-8.7-28.6-5.3-43.1c4.4-18.6,15.4-33.9,24.2-50.7c8.8-16.9,17.3-35.5,17.6-54.9
								c0.1-4.4,0-9-0.7-13.3c-0.1-0.3-0.2-1.3-0.3-1.5c-0.1-1.1-0.1-2.3-0.1-3.4c-0.1-1.6-0.3-3.2-0.5-4.8c-1-7.2-3-14.3-5.4-21.2
								c0,0.1,0,0.3-0.1,0.3c0.3-0.3-1.7-5.3-1.9-5.8c-0.6-1.5-1.3-3-2-4.6c-1.3-2.8-2.5-5.7-4-8.3c-4-7.3-9.2-14.1-13.9-21
								c-1-1.4-1.9-2.8-2.9-4.3c-0.5-0.7-4-5.9-1.4-2.1c2.4,3.5-0.6-1.1-1.2-2.2c-0.7-1.2-1.4-2.5-2.1-3.7
								c-3.2-5.8-6.2-11.7-8.7-17.8c-0.3-0.8-0.6-1.7-1-2.5c-0.1-0.4-0.2-0.8-0.2-1.2c-0.8-3.2-1.2-6.5-1.7-9.8
								c0-0.3-0.1-0.5-0.1-0.7c0-0.2,0-0.4,0-0.6c0-0.1,0-0.1,0-0.2c0.1-0.7,0-1.4,0-2.1c0.1-3.3,0.4-6.5,0.9-9.8c0-0.1,0-0.2,0-0.4
								c0.2-1,0.5-1.9,0.8-2.9c0.9-3,1.9-5.9,3-8.7c1.3-3.4,2.8-6.7,4.4-9.9c0.2-0.5,0.5-1,0.8-1.5c0.3-0.5,0.6-1.1,0.9-1.6
								c14.8-26.2,34.5-50.1,44.8-78.7c6.5-18,8.4-36.1,6.7-55.1c-1.6-17.7-6.9-34.9-9.9-52.4c-0.8-4.4-1.1-8.8-1.7-13.2
								c0-0.1,0-0.1,0-0.2c0-0.5,0-0.9,0-0.9c0-1.7,0.1-3.4,0.1-5.1c0.2-3.9,0.7-7.8,1.4-11.6c0,0,0-0.1,0-0.1
								c0.3-1.3,0.7-2.6,1.1-3.9c2.1-7,4.8-13.8,7.8-20.3c0.8-1.7,1.7-3.4,2.5-5.2c1.6-3,3.3-5.9,5-8.9c16-27.2,35.3-53,45.8-83
								c6.8-19.5,8.6-39.1,7.5-59.6c-1-18.3-4.3-36.4-5.9-54.7c0,0,0-0.1,0-0.1c0-0.7,0-1.5,0-2.2c0-1.7,0.1-3.5,0.2-5.2
								c0.2-3.2,0.5-6.5,1-9.7c0.1-0.5,0.2-1.1,0.3-1.6c0.3-1.1,0.5-2.3,0.9-3.4c0.9-3.1,1.9-6.1,3-9.1c0.7-1.8,1.5-3.6,2.2-5.3
								c0,0,0,0,0,0c0,0,0.1-0.1,0.1-0.1c0.9-1.4,1.7-2.8,2.7-4.1c0.4-0.5,2-2,2.4-2.9c0.6-0.6,1.1-1.2,1.6-1.9
								c1-0.9,2.8-2.5,2.9-2.6c3.5-3.1,5.9-6.5,7.1-10.9c0,0,0.1-0.1,0.1-0.1c5.4-8.4,2.1-18.7-7-22.6c-1.3-0.5-5.5-2.9-1,0
								c-4.8-3.1-10.2-4.5-15.9-3.5c-3.8,0.7-8,2.7-11.5,4.5c-8.3,4.1-14.6,10.4-20.6,17.3c-10.8,12.7-15.9,28.1-19.1,44.2
								c-3.3,16.9-1.9,34.7-0.3,51.7c0.8,8.8,1.9,17.5,2.7,26.2c0,0.3,0,0.6,0.1,0.8c0,0.6,0,1.3,0.1,1.9c0,2,0,4,0,6
								c-0.1,4-0.4,8.1-0.9,12c-0.2,1.8-0.6,3.6-0.9,5.4c-0.7,2.5-1.4,5-2.2,7.4c-1.8,5.5-4,10.9-6.4,16.1c-0.9,1.9-1.9,3.8-2.8,5.7
								c0,0,0,0,0,0c-1.2,2.1-2.4,4.3-3.6,6.4c-3.1,5.4-6.4,10.7-9.7,16c-14.1,22.4-29.5,44.9-38.4,70c-4.6,13.1-7.8,27.2-7.9,41.1
								c-0.1,16.6,2.8,32.7,6.3,48.8c1.6,7.4,3.3,14.9,4.3,22.5c0.2,1.9,0.4,3.8,0.6,5.7c0,0.1,0,0.1,0,0.2c0,3.1,0,6.1-0.3,9.2
								c-0.2,2-0.4,4.1-0.8,6.1c0.1-0.5,0.3-1,0.5-1.5c-0.2,0.6-0.3,1.2-0.5,1.7c-0.2,0.9-0.5,2.1-0.7,2.8c-0.2,0.9-0.5,1.7-0.7,2.5
								c-1.6,5.2-3.7,10.2-6.1,15.1c-0.8,1.6-1.6,3.3-2.4,4.9c0.2-0.3,0.3-0.5,0.5-0.8c-0.2,0.3-0.4,0.7-0.6,1
								c0,0.1-0.1,0.2-0.1,0.3c-0.3,0.6-0.8,1.5-1.2,2.1c-0.6,1.1-1.2,2.1-1.8,3.2c-3,5.1-6.1,10.1-9.3,15.1
								c-6.5,10.1-13.2,20.1-19.2,30.5C1182.5,836.3,1171.8,862.8,1175,892z M1233.7,871.7c0.1-0.8,0.1-2,0.4-2.3
								C1234.3,869.3,1234,870.4,1233.7,871.7z"/>
							<path class="st26" d="M1238.4,734.7c-0.3,0.9-0.5,1.9-0.7,2.8c-0.3,1-0.4,0.8,0.8-3C1238.4,734.6,1238.4,734.7,1238.4,734.7
								C1238.4,734.7,1238.4,734.7,1238.4,734.7z"/>
							<path class="st26" d="M1273.9,968.4c0,0,0-0.1,0-0.1C1272.6,964.7,1274,967.4,1273.9,968.4z"/>
							<path class="st26" d="M1227,762.7c-0.8,1.3-1.2,1.8,1.5-2.6c0,0.1-0.1,0.1-0.1,0.2C1227.9,761.1,1227.5,761.9,1227,762.7z"/>
						</g>
						<g>
							<path class="st27" d="M1326.3,477.8c-0.7,1-1,1.3,1.3-2.4c-0.1,0.2-0.2,0.4-0.3,0.6C1326.9,476.7,1326.6,477.3,1326.3,477.8z
								"/>
							<path class="st27" d="M1338,450.3c-0.6,1.3-1,1.2,0.7-2.9c0,0.1,0,0.2,0,0.2C1338.4,448.5,1338.2,449.4,1338,450.3z"/>
							<path class="st27" d="M1215,890.5c4.5,21.5,13.5,41.9,25.7,60.7c9.8,15.1,20.7,29.7,27.2,46.3c0.4,1,0.7,1.9,1.1,2.9
								c2,6.1,3.6,12.6,4.4,19c-0.1,4.7-0.7,9.2-1.2,13.9c-0.3,2.2-0.8,5.5,0,7.6c0.1,0.3,0.2,0.5,0.3,0.5c0,0.1,0,0.2,0,0.3
								c-0.1,1.3-2.4,7.4-1.8,6.5c-0.5,0.9-1.1,2.2-1.1,2.2c-0.5,1.1-1,2.2-1.4,3.4c-1.1,3.4-2.2,7.4-2.6,11
								c-0.5,4.3,0.7,8.9,0.2,12.8c-2,17.3,1.9,37.8,19.4,47.5c2.5,1.4,5.6-1.4,3.5-3.5c-5.8-6-8.4-13.5-7.8-21.4
								c0.3-3.7,1.1-7.2,2.3-10.7c0.6-1.9,1.4-3.7,2.2-5.5c0.4-0.8,0.7-1.7,1.2-2.5c0.1,0,0.3-0.1,0.5-0.3c3.2-2.1,6.6-5.7,8.6-7.8
								c1.8-1.9,7.1-8.1,8.6-9.5c0,0.1,2.1-1.6,3.1-2.5c0.2-0.1,0.3-0.2,0.4-0.2c0.9-0.5,1.9-1,2.8-1.5c6.9-3.9,11.8-9,17.1-14.6
								c7.2-7.6,13.2-16.5,16.9-26.1c4.4-11.4,4.7-26.3,2.2-38.2c-2.1-10.1-7.2-20.7-12.3-29.9c-4-7.1-8.5-14-13.1-20.8
								c-8.7-12.9-17-25.8-22.9-39.9c-2.9-9.2-4.9-18.6-5.9-28.2c-0.2-11.3,0.9-22.4,3-33.5c2.6-9.5,6.1-18.7,10.6-27.5
								c15.3-25.7,36-49,46.2-77.1c13.2-36.4,3.8-72.5-9.1-107.9c1,2.7,1.9,5.4,2.9,8.1c-2.3-6.5-4.5-13-5.9-19.8
								c-0.6-3-1.2-6-1.5-9.1c-0.1-0.5-0.1-1-0.2-1.6c0-0.6,0.1-1.2,0.1-1.6c0-1,0.3-7.8,0.9-12.4c0.1-0.3,0.4-1.1,0.8-2.5
								c0.3-1,0.7-2,1-3c0.9-2.5,1.9-5,2.9-7.4c2-4.6,4.3-9.2,6.6-13.6c0.4-0.8,0.8-1.5,1.3-2.3c1.3-2.2,2.5-4.3,3.8-6.4
								c5.5-9.1,11.2-18,16.6-27.1c12.3-20.9,22.8-42,26.1-66c2-14.1,0.4-28.7-1.7-42.7c-1-6.5-2.1-12.9-3.3-19.3
								c-0.6-3-1.1-6.1-1.6-9.1c-0.2-1.3-0.4-2.7-0.5-4.1c-0.1-0.6-0.3-6.7-0.3-1.6c0,4.8,0-1.1,0-2.1c0-1.3,0-2.7,0-4
								c0.1-2.1,0.2-4.3,0.5-6.4c0.1-1.1,0.3-2.1,0.4-3.2c0.1-0.7,1.4-5.7,0.1-1.4c-0.2,0.7-0.3,1.1-0.4,1.4
								c0.2-0.7,0.7-2.4,0.8-2.7c0.5-2.2,1-4.3,1.5-6.5c-0.2,1.1-0.5,2.3-0.7,3.4c1.1-2.3,1.5-4.9,2.5-7.3c0.3-0.8,1.3-4.9,0.6-1.5
								c-0.6,3.1,0.2-0.2,0.9-1.3c2.5-3.6,5.3-7.3,8.4-10.6c5.4-5.6,4.2-15.5,0.1-21.4c-4.2-6-13.3-10.6-21.2-8.6
								c-9.7,2.5-18,6-25,12.7c-7,6.7-12.3,13.9-16.5,22.3c-6.9,13.6-8.5,30.2-7.8,45.2c0.4,9.6,1.2,19.1,2.6,28.7
								c0.5,3.7,1.1,7.5,1.5,11.2c0.2,1.4,0.3,2.7,0.4,4.1c0.1,1.4,0.3,2.7,0.4,4.1l-0.2-3.3c1.2,3.4,0.1,8.6-0.2,12.2
								c-0.2,2.7-0.5,5.3-1,8c0.1-0.2,0.2-0.4,0.3-0.6c-0.1,0.3-0.2,0.6-0.3,0.8c-0.1,0.3-0.1,0.6-0.2,1c-0.1,0.7-0.3,1.3-0.5,1.7
								c-0.1,0.4-0.2,0.7-0.3,1.1c-0.8,2.5-1.6,5.1-2.6,7.6c-2.2,5.7-4.8,11.1-7.6,16.5c0.2-0.3,0.4-0.6,0.6-1
								c-0.3,0.5-0.6,1.1-0.9,1.6c-0.1,0.2-0.2,0.3-0.3,0.5c-0.2,0.4-0.5,0.9-0.7,1.2c-0.2,0.3-0.3,0.6-0.5,0.9
								c-1.4,2.4-2.8,4.7-4.3,7.1c-6.4,10.4-13.3,20.6-19.7,31c-14.5,23.8-27.9,50.3-28.7,78.3c-0.5,15.4,1.5,31.9,5,47
								c2.9,12.2,6.4,24.1,7.9,36.5c0,4.4-0.3,8.8-0.9,13.1c-1.7,5.8-4,11.4-6.8,16.9c-10.5,17.4-24.1,32.8-35.6,49.5
								c-14.3,20.8-24.1,42.7-28.8,67C1209.7,846.5,1210.5,869.3,1215,890.5z M1339.5,578.8c0.3-2,0.6-3.4,0.9-3.5
								C1340.4,575.4,1339.8,577.6,1339.5,578.8z"/>
						</g>
						<g>
							<path class="st28" d="M1359.4,574.5c-0.2,1.3-0.5,1.9-0.7,1.9c0.2-0.6,0.5-1.2,0.6-1.7
								C1359.4,574.6,1359.4,574.6,1359.4,574.5z"/>
							<path class="st28" d="M1353.1,978.1C1353.1,978,1353.1,978,1353.1,978.1C1353.1,978,1353.1,978,1353.1,978.1
								C1353.1,978,1353.1,978,1353.1,978.1z"/>
							<path class="st28" d="M1338.1,744.2C1337.3,746.2,1336.1,748,1338.1,744.2L1338.1,744.2z"/>
							<path class="st28" d="M1291.3,852.9c2.2,14.5,9.1,28.3,17,40.5c7.5,11.5,16.1,22.2,24.1,33.2c4.1,5.6,7.9,11.4,11.2,17.5
								c0.8,1.4,1.5,2.9,2.2,4.3c1.1,3.3,2.2,6.5,2.9,9.9c0,0.1,0.3,1.5,0.5,2.7c0.2,4,0.6,8.1,2,11.9c0.2,0.4,1.3,4,1.8,5.1
								c-0.3-1.1-0.1-4.5,0-0.8c0,0.3,0,0.5,0,0.8c0.1,0.2,0.2,0.3,0.2,0.3c-0.1,0-0.2-0.1-0.2-0.3c0,0.7,0,1.5,0.1,2.2
								c0,0.5,0.7,5.9,0.8,7.2c0,0.4,0.1,0.7,0.1,0.9c0.2,2,0.4,4,0.6,6c0.4,4.4,0.2,8.6,0,13c-0.4,9.3,0.1,19.6,1.2,28
								c0.7,5.2,2.1,10.1,2.8,15.3c0.7,4.5,1.6,8.9,2.8,13.4c2,8,4.8,15.9,9.2,22.9c3.9,6.2,10.1,11.3,15.7,15.9
								c10.2,8.2,23,12.9,36.2,10.7c1.6-0.3,1.2-2.9-0.4-2.8c-7.4,0.4-14.5-1.3-20.8-5.3c-13-8.3-19.2-23-20.4-38
								c-0.6-7.4-0.2-15.5,2.4-22.5c3.2-8.6,7.3-17.7,10.1-27.1c2.5-8.4,5.5-16.5,8.4-24.8c1.6-4.5,2-8.9,3.2-13.5
								c1.6-6.2,3.9-11.4,3.6-18.1c-0.8-18.9-7-37-16.6-53.1c-7.8-13.2-17.7-25-27.2-37c-0.1-0.1-0.3-0.4-0.5-0.6
								c-0.7-0.9-1.4-1.9-2.1-2.8c-1.9-2.5-3.7-5.1-5.4-7.7c-1.8-2.8-3.5-5.6-5.1-8.5c-0.6-1.2-1.2-2.3-1.8-3.5
								c-0.8-2.4-1.6-4.7-2.2-7.2c-0.1-0.5-0.2-1-0.3-1.5c0-0.4,0-0.7,0-0.8c0-1.4,0-2.7,0.1-4.1c0.3-1.3,0.6-2.6,1-3.8
								c0.2-0.6,0.6-1.8,1-2.8c0.2-0.4,0.4-0.8,0.5-1.1c0.8-1.5,1.6-3,2.5-4.5c1.5-2.5,3.2-5,4.9-7.4c0.6-0.8,2.6-3.4,2.9-3.9
								c2-2.6,4.1-5.1,6.1-7.7c10.9-13.7,20.7-27,26.3-43.7c5.4-15.9,4.9-33.6,0.9-49.7c-3.6-14.6-10.5-28.4-17.6-41.6
								c-3.3-6.2-6.7-12.3-10-18.5c-1.7-3.2-3.4-6.4-5-9.7c-0.7-1.4-1.3-2.8-2-4.2c-0.1-0.2-0.3-0.6-0.5-1.1c-0.3-0.9-1.2-3-1.4-3.7
								c-0.5-1.4-1-2.8-1.5-4.3c-1-3.1-1.8-6.2-2.6-9.4c-0.4-1.7-0.7-3.4-1.1-5.2c-0.3-3.2-0.3-6.4-0.2-9.6c0-0.6,0.2-2.3,0.3-3.4
								c0.1-0.8,0.3-1.6,0.3-1.9c0.6-3,1.4-6,2.3-8.9c1-3.4,2.3-6.8,3.3-10.2c0.1-0.5,0.4-1.1,0.6-1.7c-0.1,0-0.1-0.5,0.4-1.4
								c0.1-0.1,0.1-0.2,0.2-0.3c0.1-0.4,0.2-0.7,0.2-1c0,0.3,0,0.6-0.1,0.8c0.3-0.5,0.5-1.1,0.8-1.6c13.8-26.2,32.4-50.5,39.4-79.7
								c4.9-20.4,3.7-40.7,0.9-61.2c-1.3-9.2-2.9-18.4-4.4-27.6c-0.4-2.4-0.8-4.8-1.1-7.2c-0.2-1.2-0.3-2.3-0.5-3.5
								c-0.4-3.3-0.7-6.7-1-10c-0.4-6.8-0.5-13.7-0.2-20.6c0.1-2.1,0.3-4.2,0.5-6.3c0-0.1,0-0.2,0-0.3c0,0,0-0.1,0-0.1
								c0.6-3.3,1.2-6.6,2.1-9.8c0.5-1.7,1-3.4,1.6-5.1c0.2-0.5,0.4-1,0.6-1.5c1.3-2.6,2.7-5,4.1-7.5c3.6-6.3,4-13.9,6-20.8
								c2-7.1-3.6-13.9-10.7-14.1c-8-0.2-16.2,1.6-23.1,6c-7.4,4.7-12.5,14.2-16,22.2c-3.4,7.9-6.2,15.8-7.8,24.3
								c-3.1,16.5-3.1,32.4-0.9,48.9c1.4,10.6,3.1,21.1,4.8,31.7c0.4,2.6,0.8,5.2,1.2,7.8c0.1,1.2,0.3,2.4,0.4,3.6
								c0.5,4.4,0.9,8.8,1,13.3c0.2,4.7,0.2,9.5-0.1,14.2c-0.1,1.3-0.7,5.8-0.4,4.4c-0.3,1.6-0.5,3.1-0.9,4.6
								c-0.9,3.8-2,7.6-3.3,11.4c-0.5,1.5-1.1,3-1.7,4.4c-0.1,0.2-0.1,0.4-0.2,0.5c-0.1,0.1-0.2,0.3-0.3,0.5
								c-6.3,13.4-14.1,25.9-21.7,38.6c-8.2,13.7-16.7,27.6-22.5,42.4c-6.1,15.7-7.9,32.7-5.7,49.3c2.3,16.8,8.8,32.2,16.2,47.4
								c3.2,6.6,6.6,13,9.9,19.5c1.6,3.2,3.3,6.4,4.8,9.7c0.8,1.6,1.5,3.2,2.3,4.8c0.2,0.5,0.5,1.2,0.8,1.9c2,5.4,3.9,10.7,5.2,16.4
								c0.1,0.5,0.3,1.7,0.5,2.7c0,0.4,0.1,0.8,0.1,1c0.2,2.8,0,5.6-0.1,8.4c0,0.1,0,0.3-0.1,0.4c-0.4,1.7-0.8,3.4-1.4,5
								c-0.1,0.4-0.3,0.8-0.5,1.3c0.3-0.5,0.6-1.1,1-1.9c-0.7,1.3-1.3,2.7-1.9,4c-1.7,3.3-3.7,6.5-5.8,9.5c-0.9,1.2-1.7,2.5-2.6,3.7
								c-0.1,0.2-0.2,0.3-0.3,0.4c-9.6,11.9-20.2,23.5-27.6,37C1291.3,814.7,1288.3,833.1,1291.3,852.9z M1347.6,839.8
								c0.3,1.4,0.5,2.9,0.3,2.7C1347.6,842.3,1347.6,840.9,1347.6,839.8z"/>
						</g>
						<path class="st28" d="M1364.2,677.1c-6-18-6.3-36.1-0.9-54.3c5.7-19.4,15.7-37.3,21.8-56.6c7-21.8,10-44.4,10-67.2
							c0-23.5-4.3-46.8-9.5-69.6c-0.3-1.5,1.8-2.5,2.5-1.1c17.7,35.2,19.5,77.6,12.3,115.8c-3.8,19.9-10.9,38.3-18.8,56.8
							c-7.8,18.5-14.9,37.8-12.1,58.2c4.9,35,30.6,63.3,34.2,98.7c2.1,20.1-3.3,40-9.7,58.9c-6.6,19.5-12.4,39.3-14.8,59.8
							c-5.2,44.9,3.9,90.2,24.1,130.5c0.4,0.8-0.8,1.6-1.3,0.7c-18.9-32.9-28-70.8-27.8-108.7c0.1-19.4,2.8-38.7,7.9-57.5
							c5.5-20.2,12.5-40.2,14.4-61.2c1.8-19.6-3-37.6-11-55.3C1378.6,709.1,1369.8,693.8,1364.2,677.1z"/>
						<path class="st29" d="M1360.3,717.6c6.4-9.4,12.9-19.1,16.7-29.9c4.7-13.4,5.2-27.8,2.5-41.7c-5.4-28.2-21.1-52.4-32.5-78.2
							c-10.9-24.7-16.9-50.8-16.3-77.8c0.7-29.3,8.5-58.7,23.3-84c7.8-13.3,17.3-25.6,23.9-39.5c6.5-13.6,11.5-31.4,6.4-46.2
							c-0.7-2.1,2.6-3.5,3.6-1.5c5.6,11.7,7.4,23.9,4.6,36.6c-2.9,12.9-9.3,24.6-16,35.8c-7,11.7-14.5,23.1-20,35.6
							c-5.4,12.2-9.1,25.1-11.4,38.2c-4.5,26.2-2.5,53.6,5.8,78.8c8.9,26.8,24.8,50.7,34.4,77.3c9,25.1,11.8,52.5-0.5,77
							c-10.6,21-29,36.9-38.9,58.2c-22.2,47.7,23,92.7,31.7,137.9c11.9,62.2-40.4,126.8-9.2,186.9c1.4,2.7-2.6,5-4,2.4
							c-28.1-51.8,6.9-108.6,8.9-161.9c1-27.7-9.4-51.5-21-76c-9.8-20.7-20.3-42.7-19.4-66.2
							C1333.6,755.6,1347.5,736.5,1360.3,717.6z"/>
						<path class="st29" d="M1331.3,1034.9c33.9-34.4,24.1-87.7,19.6-130.7c-2.7-25.6-2.8-50.6,5.4-75.3
							c7.4-22.6,19.5-44.4,21.2-68.5c3.3-45-32.7-80.1-40.7-122.7c-9.3-49.2,18-94.6,30.5-140.6c7.7-28.3,11.2-57.5,10.8-86.9
							c-0.2-14.2-1.2-28.5-2.7-42.6c-1.5-14.7-4.4-29.3-5.2-44c-0.1-1.5,2.3-2.3,3-0.8c10.1,23.1,13.3,50.3,14.6,75.3
							c1.4,26.1-0.1,52.4-4.9,78.2c-4.8,25.6-14.5,49.5-23.5,73.8c-8.7,23.2-16.9,47.5-16.1,72.6c1.5,45.4,37.5,80.5,40.8,125.5
							c1.8,24.1-8.1,46.3-16.7,68.2c-4.4,11.2-8.5,22.6-10.5,34.4c-2.4,13.8-2.2,27.9-1.1,41.9c3.6,47.1,18.5,107.8-22.9,143.7
							C1331.8,1037.2,1330.4,1035.9,1331.3,1034.9z"/>
						<path class="st25" d="M1139.2,883.1c4.1-9.7,9.7-18.7,17-26.3c7.4-7.7,16.5-12.7,25.4-18.4c9.1-5.7,19.8-13.6,18.7-25.7
							c-1-10.7-10.6-18.5-17.4-25.9c-6.8-7.4-12.4-15.5-12.9-25.9c-0.6-12.5,5.3-24.7,12-34.8c7.2-10.9,16-21.1,20.6-33.5
							c4-10.8,3.6-22.1,0.4-33.1c-6.1-20.6-19.7-37.7-28.1-57.2c-8.7-20.3-8.8-41.6,4.1-60.2c16.3-23.6,43.2-34.9,66.6-49.9
							c22.9-14.7,48.2-43.3,34.3-72.4c-0.6-1.2,1-2.1,1.8-1c12.7,19.4,5.1,44.7-9.1,61.1c-17.2,19.7-42.3,29.3-63.3,44.1
							c-19.9,14-35.9,34.2-31.7,59.8c3.4,21.3,15.7,39.9,24.4,59.3c8.5,19,11.6,38.6,1.6,57.8c-11.4,21.8-41.9,47.6-25.1,74.4
							c9.1,14.5,32.1,27,24.4,47.3c-3.3,8.8-11.5,14.5-19.2,19.4c-9.3,5.9-18.7,11.2-26.2,19.5c-18.2,20.1-24.4,49-22.1,75.4
							c1.4,16.3,5.8,32.2,11.4,47.6c5.7,15.6,14.2,30.3,18.8,46.2c0.5,1.6-1.8,2.5-2.7,1.1c-7.8-11.7-13-25.4-18.1-38.6
							c-5.3-13.6-9.7-27.6-12.1-42C1128.8,928.3,1130.1,904.6,1139.2,883.1z"/>
						<path class="st25" d="M1091.3,904.9c-10.5-21.6-18.4-44.5-15.9-68.8c2.1-20.1,10.9-40,28.9-50.7c19-11.3,44.6-8.5,61.9-22.8
							c19.8-16.3,13.1-46.2,4.2-66.5c-10.3-23.5-24.9-47.5-19.6-74.3c4.9-24.6,24.1-43.2,43.4-57.7c13.1-9.8,27-18.5,39.4-29.3
							c10.8-9.4,20.1-20.4,28-32.4c16.2-24.4,25.8-53.6,27.1-82.9c0-0.9,1.4-0.9,1.5,0c0.8,25.1-4.4,49.8-15.4,72.4
							c-11.4,23.6-28.6,42.7-49.4,58.4c-21.8,16.4-46.9,30.6-60.6,55.2c-6.9,12.3-9.3,25.9-6.5,39.8c2.8,14.1,9.5,27,15.6,39.9
							c9.5,20.3,18.5,45.1,9.3,67.2c-9.1,21.8-32,26.3-52.6,31.4c-11.1,2.8-22.1,6.4-30.5,14.6c-7.8,7.6-12.5,17.7-14.9,28.3
							c-5.6,24.7,1.6,49,12.4,71.2c13,26.7,30.5,51.9,36.7,81.5c5.1,24.4,2.3,51.7-16.2,69.9c-1.7,1.6-3.8-0.7-2.5-2.5
							c15.3-19.6,15.3-46,9.6-69.1C1118.4,951.6,1103,928.8,1091.3,904.9z"/>
						<path class="st25" d="M1151.1,817.8c7.5-4.7,15.9-8.2,22.4-14.4c7.4-7.1,9.3-16.8,7.5-26.7c-3.3-18.5-12.8-34.9-12.8-54.2
							c-0.2-39.3,25.7-71.7,50.3-99.7c29.8-33.9,66.4-75.5,54.1-124.5c0-0.2,0.2-0.3,0.3-0.1c9.7,36.6-9.3,72.3-31.3,100.3
							c-25.2,32.1-57.5,61.3-67,102.7c-2.3,10-3.1,20.5-1.5,30.7c1.5,9.4,5.2,18.1,8.4,26.9c5.6,15.2,9.8,32.8-1.8,46.3
							c-10.9,12.7-28.4,16.6-39.3,29.5c-10.5,12.5-15.5,29-16.1,45.1c-1.9,43.1,27.2,79.5,51.8,112c1.6,2.2-2,5-3.8,2.9
							c-23.8-28-48.6-58.7-53.7-96.5C1114.6,868,1124,834.6,1151.1,817.8z"/>
					</g>
					<path class="st15" d="M1876.4,391.3c0,0,8.5-67.6-25.5-102.3c0,0,3.4-42.9-11.9-77.5s-46.3-90.7-114.1-117.1
						C1657.1,68,1611.3,53.2,1567,53.2s-90,14.8-157.8,41.2c-67.8,26.4-98.8,82.5-114.1,117.1c-15.3,34.6-11.9,77.5-11.9,77.5
						c-34,34.6-25.5,102.3-25.5,102.3c-20.4,19.8,15.3,52.8,15.3,52.8c77.6-126.2,156.9-161.7,294.1-161.7s216.5,35.4,294.1,161.7
						C1861.1,444.1,1896.8,411.1,1876.4,391.3z"/>
					<path class="st7" d="M1861.4,367.6c-18.6-23.9-39.1-45.2-61.9-65.1c-19.9-17.3-40.4-34.1-63-47.7c-5.7-3.4-11.5-6.7-17.4-9.8
						c0.5,0,1.1,0.1,1.6,0.1c4.9,0.2,10,2.1,14.7,3.3c10.3,2.6,20.5,5.5,30.5,9.1c20.4,7.4,40.2,16.4,58.9,27.5
						c0.7,0.4,1.2-0.6,0.6-1c-20.1-14.1-40.5-27.9-61.9-40c-9.5-5.4-18.8-11.1-28.5-16.2c-5-2.6-9.2-6.2-14.2-8.9
						c-5.3-2.9-10.8-5.1-16.3-7.4c-1.8-0.8-3.7-1.5-5.5-2.2c1.2,0.2,2.4,0.3,3.7,0.5c16.5,2.3,33.2,6.9,49.1,11.8
						c7.5,2.3,14.9,4.9,22.2,7.6c17.5,10.7,34.6,22.1,49.6,36.1c0.8,0.8,2-0.4,1.2-1.2c-16.5-17.7-33.1-34.9-50.9-51.2
						c-10.5-9.6-21.9-18.2-33.6-26.3c2.7,1.2,5.4,2.4,8.1,3.4c8,2.9,16.3,5.6,23.7,9.9c7.9,4.6,15.7,10.8,22.7,16.8
						c13.9,12,26.7,25.3,39.5,38.4c1,1,2.7-0.3,2-1.5c-5.6-9.3-11.6-17.6-18.9-25.7c-7-7.7-14.6-14.9-22-22.2
						c-6.6-6.4-13.7-12.3-19.9-19c-6.4-6.8-12-14.7-19-20.8c-15.2-13.3-35.2-22.2-53.3-30.9c-19.2-9.3-39.9-15.8-60.1-22.3
						c-5.3-1.7-10.6-2.7-16-3.9c-5.1-1.2-9.8-3-14.7-5c-2.3-0.9-4.6-1.8-6.8-2.7c0.8,0,1.7,0,2.5,0.1c8.7,0.3,17.5,1.8,26.1,3.1
						c63.6,9.5,123.3,42.2,171.6,83.8c1.1,0.9,2.5-0.5,1.5-1.5c-22.7-24-48.6-43.7-76.5-61.3c-14.2-8.9-29-16.9-44.2-23.8
						c-14.1-6.4-27.8-14-42.4-19.2c-11.3-12.6-30.4-13.5-46.3-15.4c-8.4-1.1-17,0.5-25.4,1.4c-1.9,0.2-3.6,0.4-5.4,0.7
						c-1.7-0.3-3.5-0.5-5.4-0.7c-8.4-0.9-17-2.4-25.4-1.4c-15.9,2-35,2.8-46.3,15.4c-14.6,5.3-28.3,12.9-42.4,19.2
						c-15.3,6.9-30.1,14.9-44.2,23.8c-27.9,17.6-53.7,37.3-76.5,61.3c-1,1,0.5,2.5,1.5,1.5c48.3-41.6,108-74.3,171.6-83.8
						c8.6-1.3,17.4-2.8,26.1-3.1c0.8,0,1.7,0,2.5-0.1c-2.3,0.9-4.6,1.8-6.8,2.7c-4.9,1.9-9.6,3.8-14.7,5c-5.4,1.3-10.7,2.2-16,3.9
						c-20.2,6.6-40.9,13-60.1,22.3c-18,8.7-38.1,17.6-53.3,30.9c-7,6.2-12.7,14-19,20.8c-6.3,6.7-13.4,12.6-19.9,19
						c-7.5,7.3-15,14.5-22,22.2c-7.3,8-13.3,16.4-18.9,25.7c-0.7,1.2,1,2.5,1.9,1.5c12.8-13.1,25.6-26.4,39.5-38.4
						c6.9-6,14.7-12.2,22.7-16.8c7.4-4.3,15.7-7,23.7-9.9c2.8-1,5.5-2.1,8.1-3.4c-11.7,8.2-23.1,16.7-33.6,26.3
						c-17.8,16.3-34.4,33.5-50.9,51.2c-0.8,0.8,0.4,2,1.2,1.2c15.1-14,32.1-25.4,49.6-36.1c7.3-2.7,14.7-5.3,22.2-7.6
						c15.9-5,32.6-9.6,49.1-11.8c1.2-0.2,2.4-0.3,3.7-0.5c-1.9,0.7-3.7,1.4-5.5,2.2c-5.6,2.3-11.1,4.5-16.3,7.4
						c-4.9,2.7-9.1,6.3-14.2,8.9c-9.7,5-19,10.8-28.5,16.2c-21.4,12-41.8,25.8-61.9,40c-0.6,0.4-0.1,1.4,0.6,1
						c18.7-11.1,38.5-20.1,58.9-27.5c10-3.6,20.1-6.5,30.5-9.1c4.7-1.2,9.9-3.2,14.7-3.3c0.5,0,1.1-0.1,1.6-0.1
						c-5.9,3.1-11.7,6.3-17.4,9.8c-22.6,13.6-43.1,30.5-63,47.7c-22.8,19.9-43.3,41.2-61.9,65.1c-0.4,0.5,0.3,1.2,0.7,0.7
						c17.3-19.4,37.1-37,58.1-52.2c20.8-15.1,43.7-25.8,67.4-35.2c24.6-9.7,50.4-17.7,76.2-23.8c28.5-6.8,53.2-11,82.3-12
						c3.2-0.1,6.4-0.2,9.6-0.2c3.2,0,6.4,0.1,9.6,0.2c29,1,53.7,5.1,82.3,12c25.8,6.2,51.5,14.1,76.2,23.8
						c23.8,9.4,46.7,20.1,67.4,35.2c21,15.2,40.9,32.9,58.1,52.2C1861.1,368.9,1861.8,368.1,1861.4,367.6z M1732.5,207
						c0.2,0.1,0.4,0.2,0.7,0.3C1732.9,207.2,1732.7,207.1,1732.5,207C1732.4,207,1732.5,207,1732.5,207z M1662.7,99.4
						c7.9,1.6,15.2,4.1,22.7,7c15.2,6,29.9,13,44.2,21c21.8,12.3,42.1,27.9,60.5,45.2c-9.2-7.1-18.6-13.9-28.2-20.4
						c-27.9-18.7-58.3-34.4-89.4-47c-6-2.4-12-5-18.1-7.5C1657,98.2,1659.9,98.8,1662.7,99.4z M1461.7,105.2
						c-31.1,12.6-61.5,28.3-89.4,47c-9.6,6.5-19.1,13.2-28.2,20.4c18.3-17.3,38.6-32.9,60.5-45.2c14.2-8,29-15,44.2-21
						c7.5-3,14.8-5.4,22.7-7c2.8-0.6,5.6-1.1,8.4-1.7C1473.7,100.2,1467.7,102.8,1461.7,105.2z M1400.9,207.3
						c0.2-0.1,0.4-0.2,0.7-0.3c0,0,0,0,0,0.1C1401.4,207.1,1401.1,207.2,1400.9,207.3z"/>
				</g>
				<g>
					<path class="st8" d="M1299.7,420.1c-0.1-0.4-0.6-0.2-0.6,0.2c6.8,37.6-6.3,72.3-23.6,105.1c-15.8,29.8-34.7,58.8-42.5,92.1
						c-8.3,35.5,3.7,70.9,2.3,106.7c-0.7,19-6.6,36.3-15.7,52.8c-8.2,14.9-18.2,28.7-26.7,43.3c-15.9,27.3-29.2,67.2-5,94
						c0.4,0.4,1.2-0.1,0.8-0.6c-21.1-29.6-9.8-65.4,7.1-93.9c17.1-28.9,38-55.2,41.8-89.7c3.9-35.6-5-71.4,2-106.9
						c6.7-34.2,25.3-64.3,40.6-95.1C1296.3,496,1311.2,456.1,1299.7,420.1z"/>
					<path class="st8" d="M1258.9,516.8c-16.9,17.9-34.4,36.5-45.5,58.7c-9.5,19.3-15.3,46-4.8,66.1c0.6,1.2,2.4,0.4,2.1-0.9
						c-2.7-11.2-4.6-21.7-3.5-33.3c1.2-12.1,4.9-24.1,10.2-35.1c10.1-21.1,26-38.4,41.6-55.5C1259.2,516.9,1259,516.7,1258.9,516.8z
						"/>
					<path class="st8" d="M1269.5,731.5c11.8-20.2,17.9-42.2,15.8-65.6c-3.1-33.7-18.7-69.6-2.5-102.3c0-0.1-0.1-0.2-0.1-0.1
						c-13.9,26.2-6.8,56.1-2.5,83.8c2.4,15.8,3.7,31.7,0.3,47.4c-2.4,11.4-7.1,22.2-12.3,32.5c-20.5,40.2-59,75.2-60.8,122.8
						c-1.3,33.4,14.8,64.5,30.6,92.8c0.1,0.2,0.5,0,0.4-0.2c-13.8-27.1-29-55.6-29.6-86.7c-0.5-24.6,9.7-47,22.6-67.4
						C1243.5,769.1,1258,751.3,1269.5,731.5z"/>
					<path class="st8" d="M1137.5,856.5c9.9-32.4,32.2-57.4,54.6-81.9c0,0,0-0.1-0.1-0.1c-24.3,24.3-50.6,50.4-60.6,84.2
						c-4.7,15.8-5.2,31.6-0.4,47.4c4.6,14.8,12.8,28.3,24.1,38.9c0.4,0.3,0.9-0.2,0.5-0.5C1132.8,921.2,1128.2,886.9,1137.5,856.5z"
						/>
				</g>
				<g>
					<path class="st8" d="M1834.3,420.1c0.1-0.4,0.6-0.2,0.6,0.2c-6.8,37.6,6.3,72.3,23.6,105.1c15.8,29.8,34.7,58.8,42.5,92.1
						c8.3,35.5-3.7,70.9-2.3,106.7c0.7,19,6.6,36.3,15.7,52.8c8.2,14.9,18.2,28.7,26.7,43.3c15.9,27.3,29.2,67.2,5,94
						c-0.4,0.4-1.2-0.1-0.8-0.6c21.1-29.6,9.8-65.4-7.1-93.9c-17.1-28.9-38-55.2-41.8-89.7c-3.9-35.6,5-71.4-2-106.9
						c-6.7-34.2-25.3-64.3-40.6-95.1C1837.8,496,1822.8,456.1,1834.3,420.1z"/>
					<path class="st8" d="M1875.2,516.8c16.9,17.9,34.4,36.5,45.5,58.7c9.5,19.3,15.3,46,4.8,66.1c-0.6,1.2-2.4,0.4-2.1-0.9
						c2.7-11.2,4.6-21.7,3.5-33.3c-1.2-12.1-4.9-24.1-10.2-35.1c-10.1-21.1-26-38.4-41.6-55.5C1874.9,516.9,1875,516.7,1875.2,516.8
						z"/>
					<path class="st8" d="M1864.5,731.5c-11.8-20.2-17.9-42.2-15.8-65.6c3.1-33.7,18.7-69.6,2.5-102.3c0-0.1,0.1-0.2,0.1-0.1
						c13.9,26.2,6.8,56.1,2.5,83.8c-2.4,15.8-3.7,31.7-0.3,47.4c2.4,11.4,7.1,22.2,12.3,32.5c20.5,40.2,59,75.2,60.8,122.8
						c1.3,33.4-14.8,64.5-30.6,92.8c-0.1,0.2-0.5,0-0.4-0.2c13.8-27.1,29-55.6,29.6-86.7c0.5-24.6-9.7-47-22.6-67.4
						C1890.6,769.1,1876,751.3,1864.5,731.5z"/>
					<path class="st8" d="M1996.5,856.5c-9.9-32.4-32.2-57.4-54.6-81.9c0,0,0-0.1,0.1-0.1c24.3,24.3,50.6,50.4,60.6,84.2
						c4.7,15.8,5.2,31.6,0.4,47.4c-4.6,14.8-12.8,28.3-24.1,38.9c-0.4,0.3-0.9-0.2-0.5-0.5C2001.3,921.2,2005.9,886.9,1996.5,856.5z
						"/>
				</g>
				<g>
					<g>
						<path class="st30" d="M651.5,1598.9"/>
					</g>
				</g>
				<path class="st8" d="M1090.8,1718.4c-10.9-0.9-23.8,1.7-32.8,8.1c-4.7,3.3-9,7-13.3,10.8c-5.3,4.7-9.2,10.2-13.6,15.7
					c-15.1,18.7-31.5,35.5-41,58c-17.7,41.9-12.5,92.8,15.5,129c14.9,19.3,35.6,33.6,58.8,41.1c1.1,0.4,1.5-1.3,0.5-1.7
					c-38.3-15.3-70-49.7-79.7-90.1c-11.1-46.3,6.5-93.4,42-124.1c9.7-8.4,20.8-14.4,30.4-22.9c4.8-4.3,9.5-8.5,14-12.9
					c5.3-5.2,11.9-8.9,19.4-9.8C1091.5,1719.4,1091.5,1718.5,1090.8,1718.4z"/>
				<path class="st8" d="M1045.6,1739.2c-13.4,11.3-27.1,22.4-41.2,32.9c-13.4,10.1-26.4,20.1-38.5,31.7
					c-21.8,20.8-41,46.3-40.7,77.7c0.2,15,4.7,30.4,15,41.6c0.4,0.4,0.9-0.2,0.6-0.6c-25.8-32.7-8.3-77.3,18.1-103.6
					c27.7-27.6,67.6-44.1,88.3-78.5C1047.9,1739.4,1046.5,1738.4,1045.6,1739.2z"/>
				<path class="st8" d="M963.9,1809.4c-11.6,12.6-26,21.8-39.8,31.8c-13.5,9.8-27.5,19-40.2,29.8c-11.7,9.9-23.3,21.1-30.3,35
					c-6.7,13.3-11.2,27.5-11.1,42.5c0,1,1.4,1,1.5,0c2.1-16.2,9.3-29.8,19.7-42.2c9.8-11.7,19.7-22.7,31.5-32.4
					c12.5-10.2,25.8-19.4,38-29.9c11.8-10.1,22.1-21.6,31.2-34.2C964.8,1809.5,964.2,1809,963.9,1809.4z"/>
				<g>
					<path class="st8" d="M1474.9,74.8c-21.3,2.9-42,8.9-61.9,17.2c-18.9,7.9-37.3,17.4-53.5,30c-33.2,25.7-57.8,60.5-70.3,100.6
						c-3.5,11.1-5.9,22.5-7.1,34.1c-1,9.6-2.2,21.2,1,30.6c-3,3.4-5.9,6.8-8.6,10.5c-9.2,12.5-14,26.5-16.2,41.8
						c-2.2,15.7-2.9,32-1.7,47.9c-4.5,7.2-8.4,15.3-7.2,24c1.1,8.1,5.6,15.2,13,18.6c0.3,0.1,0.6-0.2,0.4-0.5
						c-14-12.3-4.4-33.7,4.3-46c9.9-13.9,20.7-27.2,31.9-40c22.8-25.8,48-49.6,75.7-70.1c15.4-11.4,31.8-21.1,48.4-30.5
						c0,0,0-0.1,0-0.1c-33.7,14.3-64.9,36-92.2,60.3c-14.1,12.5-27.4,25.9-39.9,40.1c-7.9,9-15.8,18.3-23.2,27.9
						c2.3-5.5,4.7-11,7.5-16.3c5.7-10.6,12.3-20.4,19.5-30c15.2-20.1,35.1-36,57.1-48c0.2-0.1,0-0.4-0.2-0.3
						c-22.8,10.6-42.7,26.7-59.5,45.3c-8.3,9.2-15.3,19.7-21.2,30.6c-3.9,7.2-7.6,15-10.3,23c0.5-13.5,1.1-26.9,4.9-40.1
						c5.4-19.1,15.8-35.1,29.9-49c14.1-13.8,29.4-26.4,44.2-39.5c15.9-14.2,32.7-27.2,50.2-39.3c0.5-0.3,0-1.1-0.5-0.8
						c-28.4,17.8-56.8,36.1-82.4,57.7c-6,5.1-12,10.3-17.6,15.9c0.4-6.4-0.1-13.1,0.4-19.3c0.8-10,2.3-19.9,4.8-29.6
						c4.9-19.7,13.3-38.3,24.3-55.3c21.8-33.6,54.5-61.3,90.4-78.8C1430.3,87.3,1452.5,80.3,1474.9,74.8
						C1475,74.9,1475,74.8,1474.9,74.8z"/>
					<path class="st8" d="M1425.8,179.8c-11.2,3.1-22.9,6.2-33.6,10.6c-11.1,4.6-21.1,10.9-31.1,17.5
						c-17.3,11.6-32.9,24.9-47.7,39.3c14.7-14.2,31.7-26.6,49.3-36.6c9.8-5.6,20.1-10.3,30.2-15.3c10.9-5.5,21.4-10.9,33-15.1
						C1426.3,180.2,1426.1,179.7,1425.8,179.8z"/>
					<path class="st8" d="M1307.3,253.5c1.9-2,3.8-4,5.8-5.9C1311.1,249.6,1309.1,251.5,1307.3,253.5
						C1307.1,253.5,1307.2,253.6,1307.3,253.5z"/>
					<path class="st8" d="M1336.4,185.3c13-10.2,26.9-19.3,41.2-27.7c13.8-8,28.3-14.6,42.5-21.7c0.6-0.3,0.2-1.3-0.5-1.1
						c-30.9,9.8-59.1,29.2-83.3,50.3C1336.2,185.2,1336.3,185.3,1336.4,185.3z"/>
				</g>
				<g>
					<path class="st8" d="M1659.1,74.8c21.3,2.9,42,8.9,61.9,17.2c18.9,7.9,37.3,17.4,53.5,30c33.2,25.7,57.8,60.5,70.3,100.6
						c3.5,11.1,5.9,22.5,7.1,34.1c1,9.6,2.2,21.2-1,30.6c3,3.4,5.9,6.8,8.6,10.5c9.2,12.5,14,26.5,16.2,41.8
						c2.2,15.7,2.9,32,1.7,47.9c4.5,7.2,8.4,15.3,7.2,24c-1.1,8.1-5.6,15.2-13,18.6c-0.3,0.1-0.6-0.2-0.4-0.5
						c14-12.3,4.4-33.7-4.3-46c-9.9-13.9-20.7-27.2-31.9-40c-22.8-25.8-48-49.6-75.7-70.1c-15.4-11.4-31.8-21.1-48.4-30.5
						c0,0,0-0.1,0-0.1c33.7,14.3,64.9,36,92.2,60.3c14.1,12.5,27.4,25.9,39.9,40.1c7.9,9,15.8,18.3,23.2,27.9
						c-2.3-5.5-4.7-11-7.5-16.3c-5.7-10.6-12.3-20.4-19.5-30c-15.2-20.1-35.1-36-57.1-48c-0.2-0.1,0-0.4,0.2-0.3
						c22.8,10.6,42.7,26.7,59.5,45.3c8.3,9.2,15.3,19.7,21.2,30.6c3.9,7.2,7.6,15,10.3,23c-0.5-13.5-1.1-26.9-4.9-40.1
						c-5.4-19.1-15.8-35.1-29.9-49c-14.1-13.8-29.4-26.4-44.2-39.5c-15.9-14.2-32.7-27.2-50.2-39.3c-0.5-0.3,0-1.1,0.5-0.8
						c28.4,17.8,56.8,36.1,82.4,57.7c6,5.1,12,10.3,17.6,15.9c-0.4-6.4,0.1-13.1-0.4-19.3c-0.8-10-2.3-19.9-4.8-29.6
						c-4.9-19.7-13.3-38.3-24.3-55.3c-21.8-33.6-54.5-61.3-90.4-78.8C1703.7,87.3,1681.6,80.3,1659.1,74.8
						C1659,74.9,1659.1,74.8,1659.1,74.8z"/>
					<path class="st8" d="M1708.2,179.8c11.2,3.1,22.9,6.2,33.6,10.6c11.1,4.6,21.1,10.9,31.1,17.5c17.3,11.6,32.9,24.9,47.7,39.3
						c-14.7-14.2-31.7-26.6-49.3-36.6c-9.8-5.6-20.1-10.3-30.2-15.3c-10.9-5.5-21.4-10.9-33-15.1
						C1707.8,180.2,1707.9,179.7,1708.2,179.8z"/>
					<path class="st8" d="M1826.8,253.5c-1.9-2-3.8-4-5.8-5.9C1823,249.6,1824.9,251.5,1826.8,253.5
						C1826.9,253.5,1826.8,253.6,1826.8,253.5z"/>
					<path class="st8" d="M1797.7,185.3c-13-10.2-26.9-19.3-41.2-27.7c-13.8-8-28.3-14.6-42.5-21.7c-0.6-0.3-0.2-1.3,0.5-1.1
						c30.9,9.8,59.1,29.2,83.3,50.3C1797.9,185.2,1797.8,185.3,1797.7,185.3z"/>
				</g>
			</g>
		</g>
		<path class="st8" d="M890.2,1158.8c-5.4-1.4-9.6-5.6-11-11l-4.6-18l-4.6,18c-1.4,5.4-5.6,9.6-11,11l-18,4.6l18,4.6
			c5.4,1.4,9.6,5.6,11,11l4.6,18l4.6-18c1.4-5.4,5.6-9.6,11-11l18-4.6L890.2,1158.8z"/>
		<path class="st8" d="M2154,676.1c-5.4-1.4-9.6-5.6-11-11l-4.6-18l-4.6,18c-1.4,5.4-5.6,9.6-11,11l-18,4.6l18,4.6
			c5.4,1.4,9.6,5.6,11,11l4.6,18l4.6-18c1.4-5.4,5.6-9.6,11-11l18-4.6L2154,676.1z"/>
		<path class="st8" d="M1090.5,701.2c-5.4-1.4-9.6-5.6-11-11l-4.6-18l-4.6,18c-1.4,5.4-5.6,9.6-11,11l-18,4.6l18,4.6
			c5.4,1.4,9.6,5.6,11,11l4.6,18l4.6-18c1.4-5.4,5.6-9.6,11-11l18-4.6L1090.5,701.2z"/>
		<path class="st8" d="M1503.5,1729.7c-5.4-1.4-9.6-5.6-11-11l-4.6-18l-4.6,18c-1.4,5.4-5.6,9.6-11,11l-18,4.6l18,4.6
			c5.4,1.4,9.6,5.6,11,11l4.6,18l4.6-18c1.4-5.4,5.6-9.6,11-11l18-4.6L1503.5,1729.7z"/>
		<path class="st8" d="M1783.8,1938.5c-5.4-1.4-9.6-5.6-11-11l-4.6-18l-4.6,18c-1.4,5.4-5.6,9.6-11,11l-18,4.6l18,4.6
			c5.4,1.4,9.6,5.6,11,11l4.6,18l4.6-18c1.4-5.4,5.6-9.6,11-11l18-4.6L1783.8,1938.5z"/>
		<path class="st8" d="M2187.5,1051c-5.4-1.4-9.6-5.6-11-11l-4.6-18l-4.6,18c-1.4,5.4-5.6,9.6-11,11l-18,4.6l18,4.6
			c5.4,1.4,9.6,5.6,11,11l4.6,18l4.6-18c1.4-5.4,5.6-9.6,11-11l18-4.6L2187.5,1051z"/>
		<path class="st8" d="M1633.3,1108.4c-3.6-0.9-6.4-3.7-7.3-7.3l-3.1-12.1l-3.1,12.1c-0.9,3.6-3.7,6.4-7.3,7.3l-12.1,3.1l12.1,3.1
			c3.6,0.9,6.4,3.7,7.3,7.3l3.1,12.1l3.1-12.1c0.9-3.6,3.7-6.4,7.3-7.3l12.1-3.1L1633.3,1108.4z"/>
		<path class="st8" d="M1308.3,1828.1c-3.6-0.9-6.4-3.7-7.3-7.3l-3.1-12.1l-3.1,12.1c-0.9,3.6-3.7,6.4-7.3,7.3l-12.1,3.1l12.1,3.1
			c3.6,0.9,6.4,3.7,7.3,7.3l3.1,12.1l3.1-12.1c0.9-3.6,3.7-6.4,7.3-7.3l12.1-3.1L1308.3,1828.1z"/>
		<path class="st8" d="M1285.8,1311.7c-3.6-0.9-6.4-3.7-7.3-7.3l-3.1-12.1l-3.1,12.1c-0.9,3.6-3.7,6.4-7.3,7.3l-12.1,3.1l12.1,3.1
			c3.6,0.9,6.4,3.7,7.3,7.3l3.1,12.1l3.1-12.1c0.9-3.6,3.7-6.4,7.3-7.3l12.1-3.1L1285.8,1311.7z"/>
		<path class="st8" d="M1494.1,989.6c-3.6-0.9-6.4-3.7-7.3-7.3l-3.1-12.1l-3.1,12.1c-0.9,3.6-3.7,6.4-7.3,7.3l-12.1,3.1l12.1,3.1
			c3.6,0.9,6.4,3.7,7.3,7.3l3.1,12.1l3.1-12.1c0.9-3.6,3.7-6.4,7.3-7.3l12.1-3.1L1494.1,989.6z"/>
		<path class="st8" d="M1712.8,1626.4c-3.6-0.9-6.4-3.7-7.3-7.3l-3.1-12.1l-3.1,12.1c-0.9,3.6-3.7,6.4-7.3,7.3l-12.1,3.1l12.1,3.1
			c3.6,0.9,6.4,3.7,7.3,7.3l3.1,12.1l3.1-12.1c0.9-3.6,3.7-6.4,7.3-7.3l12.1-3.1L1712.8,1626.4z"/>
		<path class="st8" d="M1101.7,996.9c-3.6-0.9-6.4-3.7-7.3-7.3l-3.1-12.1l-3.1,12.1c-0.9,3.6-3.7,6.4-7.3,7.3l-12.1,3.1l12.1,3.1
			c3.6,0.9,6.4,3.7,7.3,7.3l3.1,12.1l3.1-12.1c0.9-3.6,3.7-6.4,7.3-7.3l12.1-3.1L1101.7,996.9z"/>
		<path class="st8" d="M2255.2,1334.2c-3.6-0.9-6.4-3.7-7.3-7.3l-3.1-12.1l-3.1,12.1c-0.9,3.6-3.7,6.4-7.3,7.3l-12.1,3.1l12.1,3.1
			c3.6,0.9,6.4,3.7,7.3,7.3l3.1,12.1l3.1-12.1c0.9-3.6,3.7-6.4,7.3-7.3l12.1-3.1L2255.2,1334.2z"/>
		<path class="st8" d="M1947.9,475.4c-3.6-0.9-6.4-3.7-7.3-7.3l-3.1-12.1l-3.1,12.1c-0.9,3.6-3.7,6.4-7.3,7.3l-12.1,3.1l12.1,3.1
			c3.6,0.9,6.4,3.7,7.3,7.3l3.1,12.1l3.1-12.1c0.9-3.6,3.7-6.4,7.3-7.3l12.1-3.1L1947.9,475.4z"/>
		<path class="st8" d="M2079.3,982.1c-3.6-0.9-6.4-3.7-7.3-7.3l-3.1-12.1l-3.1,12.1c-0.9,3.6-3.7,6.4-7.3,7.3l-12.1,3.1l12.1,3.1
			c3.6,0.9,6.4,3.7,7.3,7.3l3.1,12.1l3.1-12.1c0.9-3.6,3.7-6.4,7.3-7.3l12.1-3.1L2079.3,982.1z"/>
		<path class="st8" d="M894.2,1375.5c-3.6-0.9-6.4-3.7-7.3-7.3l-3.1-12.1l-3.1,12.1c-0.9,3.6-3.7,6.4-7.3,7.3l-12.1,3.1l12.1,3.1
			c3.6,0.9,6.4,3.7,7.3,7.3l3.1,12.1l3.1-12.1c0.9-3.6,3.7-6.4,7.3-7.3l12.1-3.1L894.2,1375.5z"/>
	</g>
</g>
</svg>
